<?xml version="1.0" standalone="no"?>
<!DOCTYPE svg PUBLIC "-//W3C//DTD SVG 20010904//EN"
 "http://www.w3.org/TR/2001/REC-SVG-20010904/DTD/svg10.dtd">
<svg version="1.0" xmlns="http://www.w3.org/2000/svg"
 width="1200.000000pt" height="1200.000000pt" viewBox="0 0 1200.000000 1200.000000"
 preserveAspectRatio="xMidYMid meet">
<metadata>
Created by potrace 1.14, written by Peter Selinger 2001-2017
</metadata>
<g transform="translate(0.000000,1200.000000) scale(0.100000,-0.100000)"
fill="#000000" stroke="none">
<path d="M0 8850 l0 -3150 800 0 800 0 0 800 0 800 1600 0 1600 0 0 -450 0
-450 -800 0 -800 0 0 -800 0 -800 -800 0 -800 0 0 -1600 0 -1600 -800 0 -800
0 0 -800 0 -800 800 0 800 0 0 800 0 800 1600 0 1600 0 0 -800 0 -800 800 0
800 0 0 1600 0 1600 -800 0 -800 0 0 1250 0 1250 800 0 800 0 0 800 0 800
-800 0 -800 0 0 800 0 800 800 0 800 0 0 800 0 800 -800 0 -800 0 0 750 0 750
-2400 0 -2400 0 0 -3150z m4800 850 l0 -800 -1600 0 -1600 0 0 800 0 800 1600
0 1600 0 0 -800z"/>
<path d="M8800 11250 l0 -750 -800 0 -800 0 0 -800 0 -800 800 0 800 0 0 -800
0 -800 800 0 800 0 0 800 0 800 800 0 800 0 0 800 0 800 -800 0 -800 0 0 750
0 750 -800 0 -800 0 0 -750z m1600 -1550 l0 -800 -800 0 -800 0 0 800 0 800
800 0 800 0 0 -800z"/>
<path d="M7200 5600 l0 -800 800 0 800 0 0 -2400 0 -2400 800 0 800 0 0 2400
0 2400 800 0 800 0 0 800 0 800 -2400 0 -2400 0 0 -800z"/>
</g>
</svg>
