<?xml version="1.0" standalone="no"?>
<!DOCTYPE svg PUBLIC "-//W3C//DTD SVG 1.1//EN" "http://www.w3.org/Graphics/SVG/1.1/DTD/svg11.dtd" >
<svg>
<metadata>
Created by FontForge 20090914 at Thu Feb 23 19:12:16 2012
 By ffonts
Copyright (c) Craig Kroeger (eng) &#38; Nikolay Dubina (rus), 2001. All rights reserved.
</metadata>
<defs>
<font id="hooge05_55Cyr2" horiz-adv-x="625" >
  <font-face 
    font-family="hooge 05_55 Cyr2"
    font-weight="400"
    font-stretch="normal"
    units-per-em="1000"
    panose-1="2 0 5 6 2 0 0 2 0 4"
    ascent="800"
    descent="-200"
    x-height="625"
    cap-height="625"
    bbox="0 -250 1625 1001"
    underline-thickness="20"
    underline-position="-123"
    unicode-range="U+0020-U+F002"
  />
<missing-glyph horiz-adv-x="500" 
d="M0 0h375v625h-375v-625zM62 63v500h250v-500h-250z" />
    <glyph glyph-name=".notdef" horiz-adv-x="500" 
d="M0 0h375v625h-375v-625zM62 63v500h250v-500h-250z" />
    <glyph glyph-name=".null" horiz-adv-x="0" 
 />
    <glyph glyph-name="nonmarkingreturn" horiz-adv-x="500" 
 />
    <glyph glyph-name="space" unicode=" " horiz-adv-x="127" 
 />
    <glyph glyph-name="numbersign" unicode="#" horiz-adv-x="750" 
d="M625 375v125h-125v125h-125v-125h-125v125h-125v-125h-125v-125h125v-125h-125v-125h125v-125h125v125h125v-125h125v125h125v125h-125v125h125zM250 375h125v-125h-125v125z" />
    <glyph glyph-name="dollar" unicode="$" horiz-adv-x="500" 
d="M125 0v-125h125v125h125v375h-250v125h250v125h-125v125h-125v-125h-125v-375h250v-125h-250v-125h125z" />
    <glyph glyph-name="percent" unicode="%" 
d="M250 125v250h-125v-250h125zM375 375v250h-125v-250h125zM0 625v-125h125v125h-125zM375 125v-125h125v125h-125zM0 125v-125h125v125h-125z" />
    <glyph glyph-name="ampersand" unicode="&#x26;" horiz-adv-x="750" 
d="M500 250v375h-375v-250h-125v-375h500v125h125v125h-125zM495 250v-125h-370v125h370zM375 500v-125h-125v125h125z" />
    <glyph glyph-name="quotesingle" unicode="'" horiz-adv-x="250" 
d="M125 625h-125v-250h125v250z" />
    <glyph glyph-name="parenleft" unicode="(" horiz-adv-x="375" 
d="M0 500v-375h125v-125h125v125h-125v375h-125zM250 625h-125v-125h125v125z" />
    <glyph glyph-name="parenright" unicode=")" horiz-adv-x="375" 
d="M0 625v-125h125v-375h125v375h-125v125h-125zM0 125v-125h125v125h-125z" />
    <glyph glyph-name="asterisk" unicode="*" horiz-adv-x="750" 
d="M125 625v-125h125v-125h-250v-125h250v-125h125v-125h125v125h-125v125h250v125h-250v125h-125v125h-125zM500 500v125h-125v-125h125zM125 125v-125h125v125h-125z" />
    <glyph glyph-name="plus" unicode="+" horiz-adv-x="750" 
d="M625 375h-250v250h-125v-250h-250v-125h250v-250h125v250h250v125z" />
    <glyph glyph-name="comma" unicode="," horiz-adv-x="250" 
d="M0 125v-250h125v250h-125z" />
    <glyph glyph-name="hyphen" unicode="-" horiz-adv-x="500" 
d="M375 250v125h-375v-125h375z" />
    <glyph glyph-name="hyphen" unicode="&#x2010;" horiz-adv-x="500" 
d="M375 250v125h-375v-125h375z" />
    <glyph glyph-name="period" unicode="." horiz-adv-x="250" 
d="M0 125v-125h125v125h-125z" />
    <glyph glyph-name="slash" unicode="/" horiz-adv-x="375" 
d="M0 375v-375h125v375h-125zM125 625v-250h125v250h-125z" />
    <glyph glyph-name="zero" unicode="0" 
d="M500 625h-500v-625h500v625zM375 125h-250v375h250v-375z" />
    <glyph glyph-name="one" unicode="1" horiz-adv-x="375" 
d="M0 625v-125h125v-500h125v625h-250z" />
    <glyph glyph-name="two" unicode="2" 
d="M375 500v-125h-375v-375h500v125h-375v125h375v375h-500v-125h375z" />
    <glyph glyph-name="three" unicode="3" 
d="M0 625v-125h375v-125h-250v-125h250v-125h-375v-125h500v625h-500z" />
    <glyph glyph-name="four" unicode="4" 
d="M500 625h-125v-250h-250v250h-125v-375h375v-250h125v625z" />
    <glyph glyph-name="five" unicode="5" 
d="M125 500h375v125h-500v-375h375v-125h-375v-125h500v375h-375v125z" />
    <glyph glyph-name="six" unicode="6" 
d="M125 375v125h375v125h-500v-625h500v375h-375zM375 125h-250v125h250v-125z" />
    <glyph glyph-name="seven" unicode="7" horiz-adv-x="500" 
d="M0 625v-125h250v-500h125v625h-375z" />
    <glyph glyph-name="eight" unicode="8" 
d="M0 625v-625h500v625h-500zM375 125h-256v125h256v-125zM125 500h250v-125h-250v125z" />
    <glyph glyph-name="nine" unicode="9" 
d="M375 250v-125h-375v-125h500v625h-500v-375h375zM125 500h250v-125h-250v125z" />
    <glyph glyph-name="colon" unicode=":" horiz-adv-x="250" 
d="M0 250v-125h125v125h-125zM0 500v-125h125v125h-125z" />
    <glyph glyph-name="semicolon" unicode=";" horiz-adv-x="250" 
d="M0 125v-250h125v250h-125zM0 500v-125h125v125h-125z" />
    <glyph glyph-name="less" unicode="&#x3c;" horiz-adv-x="500" 
d="M0 375v-125h125v-125h125v-125h125v125h-125v125h-125v125h-125zM375 625h-125v-125h125v125zM125 500v-125h125v125h-125z" />
    <glyph glyph-name="equal" unicode="=" 
d="M0 500v-125h500v125h-500zM0 125h500v125h-500v-125z" />
    <glyph glyph-name="greater" unicode="&#x3e;" horiz-adv-x="500" 
d="M0 625v-125h125v-125h125v-125h125v125h-125v125h-125v125h-125zM0 125v-125h125v125h-125zM125 250v-125h125v125h-125z" />
    <glyph glyph-name="question" unicode="?" 
d="M0 625v-125h375v-125h-250v-125h375v375h-500zM125 0h125v125h-125v-125z" />
    <glyph glyph-name="at" unicode="@" 
d="M0 500v-375h125v-125h375v125h-375v375h-125zM250 375v-125h250v250h-125v125h-250v-125h250v-125h-125z" />
    <glyph glyph-name="A" unicode="A" 
d="M0 625v-625h125v250h250v-250h125v625h-500zM375 375h-250v125h250v-125z" />
    <glyph glyph-name="B" unicode="B" 
d="M0 625v-625h500v250h-125v125h125v250h-500zM370 500v-125h-245v125h245zM370 250v-125h-245v125h245z" />
    <glyph glyph-name="C" unicode="C" 
d="M500 500v125h-500v-625h500v125h-375v375h375z" />
    <glyph glyph-name="D" unicode="D" 
d="M375 500v125h-375v-625h375v125h125v375h-125zM370 500v-375h-245v375h245z" />
    <glyph glyph-name="E" unicode="E" 
d="M500 500v125h-500v-625h500v125h-375v125h250v125h-250v125h375z" />
    <glyph glyph-name="F" unicode="F" 
d="M500 500v125h-500v-625h125v250h250v125h-250v125h375z" />
    <glyph glyph-name="G" unicode="G" 
d="M125 125v375h375v125h-500v-625h500v375h-250v-125h125v-125h-250z" />
    <glyph glyph-name="H" unicode="H" 
d="M375 625v-250h-250v250h-125v-625h125v250h250v-250h125v625h-125z" />
    <glyph glyph-name="I" unicode="I" horiz-adv-x="250" 
d="M0 625v-625h125v625h-125z" />
    <glyph glyph-name="J" unicode="J" horiz-adv-x="500" 
d="M250 625v-500h-250v-125h375v625h-125z" />
    <glyph glyph-name="K" unicode="K" 
d="M0 0h125v250h250v125h-250v250h-125v-625zM500 0v250h-125v-250h125zM500 625h-125v-250h125v250z" />
    <glyph glyph-name="L" unicode="L" horiz-adv-x="500" 
d="M125 125v500h-125v-625h375v125h-250z" />
    <glyph glyph-name="M" unicode="M" horiz-adv-x="750" 
d="M0 625v-625h125v500h125v-500h125v500h125v-500h125v625h-625z" />
    <glyph glyph-name="N" unicode="N" 
d="M0 625v-625h125v500h250v-500h125v625h-500z" />
    <glyph glyph-name="O" unicode="O" 
d="M500 625h-500v-625h500v625zM375 125h-250v375h250v-375z" />
    <glyph glyph-name="P" unicode="P" 
d="M0 625v-625h125v250h375v375h-500zM375 375h-250v125h250v-125z" />
    <glyph glyph-name="Q" unicode="Q" 
d="M375 -125v125h125v625h-500v-625h250v-125h125zM375 125h-250v375h250v-375z" />
    <glyph glyph-name="R" unicode="R" 
d="M500 0v250h-125v125h125v250h-500v-625h125v250h250v-250h125zM370 375h-245v125h245v-125z" />
    <glyph glyph-name="S" unicode="S" 
d="M125 500h375v125h-500v-375h375v-125h-375v-125h500v375h-375v125z" />
    <glyph glyph-name="T" unicode="T" horiz-adv-x="500" 
d="M375 625h-375v-125h125v-500h125v500h125v125z" />
    <glyph glyph-name="U" unicode="U" 
d="M375 625v-500h-250v500h-125v-625h500v625h-125z" />
    <glyph glyph-name="V" unicode="V" 
d="M125 0h250v125h-250v500h-125v-500h125v-125zM375 625v-500h125v500h-125z" />
    <glyph glyph-name="W" unicode="W" horiz-adv-x="750" 
d="M625 0v625h-125v-500h-125v500h-125v-500h-125v500h-125v-625h625z" />
    <glyph glyph-name="X" unicode="X" 
d="M500 0v250h-125v125h-250v250h-125v-250h125v-125h250v-250h125zM0 250v-250h125v250h-125zM500 375v250h-125v-250h125z" />
    <glyph glyph-name="Y" unicode="Y" 
d="M375 625v-250h-250v250h-125v-375h375v-125h-375v-125h500v625h-125z" />
    <glyph glyph-name="Z" unicode="Z" 
d="M500 375v250h-500v-125h375v-125h125zM125 250h-125v-250h500v125h-375v125zM125 250h250v125h-250v-125z" />
    <glyph glyph-name="bracketleft" unicode="[" horiz-adv-x="375" 
d="M250 625v125h-250v-875h250v125h-125v625h125z" />
    <glyph glyph-name="backslash" unicode="\" horiz-adv-x="375" 
d="M0 375v-375h125v375h-125zM125 625v-250h125v250h-125z" />
    <glyph glyph-name="bracketright" unicode="]" horiz-adv-x="375" 
d="M0 625h125v-625h-125v-125h250v875h-250v-125z" />
    <glyph glyph-name="asciicircum" unicode="^" horiz-adv-x="500" 
d="M250 500v-125h125v125h-125zM0 500v-125h125v125h-125zM250 500v125h-125v-125h125z" />
    <glyph glyph-name="underscore" unicode="_" horiz-adv-x="750" 
d="M0 125v-125h625v125h-625z" />
    <glyph glyph-name="grave" unicode="`" horiz-adv-x="375" 
d="M125 500v-125h125v125h-125zM125 500v125h-125v-125h125z" />
    <glyph glyph-name="a" unicode="a" 
d="M0 625v-625h125v250h250v-250h125v625h-500zM375 375h-250v125h250v-125z" />
    <glyph glyph-name="b" unicode="b" 
d="M0 625v-625h500v250h-125v125h125v250h-500zM370 500v-125h-245v125h245zM370 250v-125h-245v125h245z" />
    <glyph glyph-name="c" unicode="c" 
d="M500 500v125h-500v-625h500v125h-375v375h375z" />
    <glyph glyph-name="d" unicode="d" 
d="M375 500v125h-375v-625h375v125h125v375h-125zM370 500v-375h-245v375h245z" />
    <glyph glyph-name="e" unicode="e" 
d="M500 500v125h-500v-625h500v125h-375v125h250v125h-250v125h375z" />
    <glyph glyph-name="f" unicode="f" 
d="M500 500v125h-500v-625h125v250h250v125h-250v125h375z" />
    <glyph glyph-name="g" unicode="g" 
d="M125 125v375h375v125h-500v-625h500v375h-250v-125h125v-125h-250z" />
    <glyph glyph-name="h" unicode="h" 
d="M375 625v-250h-250v250h-125v-625h125v250h250v-250h125v625h-125z" />
    <glyph glyph-name="i" unicode="i" horiz-adv-x="250" 
d="M0 625v-625h125v625h-125z" />
    <glyph glyph-name="j" unicode="j" horiz-adv-x="500" 
d="M250 625v-500h-250v-125h375v625h-125z" />
    <glyph glyph-name="k" unicode="k" 
d="M0 0h125v250h250v125h-250v250h-125v-625zM500 0v250h-125v-250h125zM500 625h-125v-250h125v250z" />
    <glyph glyph-name="l" unicode="l" horiz-adv-x="500" 
d="M125 125v500h-125v-625h375v125h-250z" />
    <glyph glyph-name="m" unicode="m" horiz-adv-x="750" 
d="M0 625v-625h125v500h125v-500h125v500h125v-500h125v625h-625z" />
    <glyph glyph-name="n" unicode="n" 
d="M0 625v-625h125v500h250v-500h125v625h-500z" />
    <glyph glyph-name="o" unicode="o" 
d="M500 625h-500v-625h500v625zM375 125h-250v375h250v-375z" />
    <glyph glyph-name="p" unicode="p" 
d="M0 625v-625h125v250h375v375h-500zM375 375h-250v125h250v-125z" />
    <glyph glyph-name="q" unicode="q" 
d="M375 -125v125h125v625h-500v-625h250v-125h125zM375 125h-250v375h250v-375z" />
    <glyph glyph-name="r" unicode="r" 
d="M500 0v250h-125v125h125v250h-500v-625h125v250h250v-250h125zM370 375h-245v125h245v-125z" />
    <glyph glyph-name="s" unicode="s" 
d="M125 500h375v125h-500v-375h375v-125h-375v-125h500v375h-375v125z" />
    <glyph glyph-name="t" unicode="t" horiz-adv-x="500" 
d="M375 625h-375v-125h125v-500h125v500h125v125z" />
    <glyph glyph-name="u" unicode="u" 
d="M375 625v-500h-250v500h-125v-625h500v625h-125z" />
    <glyph glyph-name="v" unicode="v" 
d="M125 0h250v125h-250v500h-125v-500h125v-125zM375 625v-500h125v500h-125z" />
    <glyph glyph-name="w" unicode="w" horiz-adv-x="750" 
d="M625 0v625h-125v-500h-125v500h-125v-500h-125v500h-125v-625h625z" />
    <glyph glyph-name="x" unicode="x" 
d="M500 0v250h-125v125h-250v250h-125v-250h125v-125h250v-250h125zM0 250v-250h125v250h-125zM500 375v250h-125v-250h125z" />
    <glyph glyph-name="y" unicode="y" 
d="M375 625v-250h-250v250h-125v-375h375v-125h-375v-125h500v625h-125z" />
    <glyph glyph-name="z" unicode="z" 
d="M500 375v250h-500v-125h375v-125h125zM125 250h-125v-250h500v125h-375v125zM125 250h250v125h-250v-125z" />
    <glyph glyph-name="braceleft" unicode="{" horiz-adv-x="500" 
d="M250 0v250h-125v125h-125v-125h125v-250h125zM250 375v250h-125v-250h125zM375 625v125h-125v-125h125zM250 0v-125h125v125h-125z" />
    <glyph glyph-name="bar" unicode="|" horiz-adv-x="250" 
d="M0 750v-875h125v875h-125z" />
    <glyph glyph-name="braceright" unicode="}" horiz-adv-x="500" 
d="M375 250v125h-125v250h-125v125h-125v-125h125v-250h125v-125h125zM250 0v250h-125v-250h125zM0 0v-125h125v125h-125z" />
    <glyph glyph-name="asciitilde" unicode="~" 
d="M250 375v125h-125v-125h125v-125h125v125h-125zM0 375v-125h125v125h-125zM375 500v-125h125v125h-125z" />
    <glyph glyph-name="dagger" unicode="&#x2020;" horiz-adv-x="500" 
d="M250 375v125h-125v-125h-125v-125h125v-250h125v250h125v125h-125z" />
    <glyph glyph-name="degree" unicode="&#xb0;" horiz-adv-x="500" 
d="M0 625v-375h375v375h-375zM125 500h125v-125h-125v125z" />
    <glyph glyph-name="cent" unicode="&#xa2;" horiz-adv-x="500" 
d="M125 625v-125h-125v-500h125v-125h125v125h125v125h-250v250h250v125h-125v125h-125z" />
    <glyph glyph-name="sterling" unicode="&#xa3;" 
d="M0 0h500v250h-125v-125h-250v125h125v125h-125v125h250v125h-375v-625z" />
    <glyph glyph-name="section" unicode="&#xa7;" horiz-adv-x="500" 
d="M375 625h-375v-625h250v-125h-250v-125h375v625h-250v125h250v125zM250 125h-125v125h125v-125z" />
    <glyph glyph-name="bullet" unicode="&#x2022;" horiz-adv-x="250" 
d="M0 375v-125h125v125h-125z" />
    <glyph glyph-name="paragraph" unicode="&#xb6;" horiz-adv-x="750" 
d="M0 250h250v-250h125v500h125v-500h125v625h-625v-375zM250 375h-125v125h125v-125z" />
    <glyph glyph-name="registered" unicode="&#xae;" 
d="M0 625v-625h500v625h-500zM250 375v-250h-125v375h250v-125h-125z" />
    <glyph glyph-name="copyright" unicode="&#xa9;" 
d="M0 0h500v625h-500v-625zM125 500h250v-125h-125v-125h125v-125h-250v375z" />
    <glyph glyph-name="trademark" unicode="&#x2122;" horiz-adv-x="875" 
d="M0 625v-125h125v-125h125v125h125v-125h125v125h125v-125h125v250h-750z" />
    <glyph glyph-name="acute" unicode="&#xb4;" horiz-adv-x="375" 
d="M125 500h125v125h-125v-125zM125 500h-125v-125h125v125z" />
    <glyph glyph-name="dieresis" unicode="&#xa8;" horiz-adv-x="500" 
d="M0 751v-125h125v125h-125zM250 750v-125h125v125h-125z" />
    <glyph glyph-name="infinity" unicode="&#xa5;" horiz-adv-x="750" 
d="M250 375v125h-125v125h-125v-125h125v-125h125v-125h-125v-125h125v-125h125v125h125v125h-125v125h-125zM500 625v-125h125v125h-125zM375 500v-125h125v125h-125z" />
    <glyph glyph-name="plusminus" unicode="&#xb5;" horiz-adv-x="1500" 
d="M1375 750h-1375v-875h1375v875zM125 0v501h125v124h875v-124h125v-501h-1125zM1000 376h130v124h-135v-123h-615v123h-135v-125h130v-125h625v126z" />
    <glyph glyph-name="lessequal" unicode="&#xaa;" horiz-adv-x="500" 
d="M0 625v-375h375v375h-375zM375 0v125h-375v-125h375zM125 500h125v-125h-125v125z" />
    <glyph glyph-name="greaterequal" unicode="&#xba;" horiz-adv-x="500" 
d="M0 625v-375h375v375h-375zM375 0v125h-375v-125h375zM125 500h125v-125h-125v125z" />
    <glyph glyph-name="partialdiff" unicode="&#xbf;" 
d="M500 0v125h-375v125h250v125h-375v-375h500zM375 625h-125v-125h125v125z" />
    <glyph glyph-name="summation" horiz-adv-x="250" 
d="M0 0h125v375h-125v-375zM125 500v125h-125v-125h125z" />
    <glyph glyph-name="product" unicode="&#xac;" horiz-adv-x="750" 
d="M500 125v125h125v125h-125v125h-125v125h-125v-125h125v-125h-375v-125h375v-125h125zM250 0h125v125h-125v-125z" />
    <glyph glyph-name="integral" unicode="&#xab;" horiz-adv-x="750" 
d="M125 375h-125v-125h125v-125h125v125h-125v125zM500 375h-125v-125h125v-125h125v125h-125v125zM500 375h125v125h-125v-125zM125 375h125v125h-125v-125z" />
    <glyph glyph-name="ordfeminine" unicode="&#xbb;" horiz-adv-x="750" 
d="M500 375v125h-125v-125h125zM0 250v-125h125v125h-125zM125 375v-125h125v125h-125zM125 375v125h-125v-125h125zM375 250v-125h125v125h-125zM500 375v-125h125v125h-125z" />
    <glyph glyph-name="ordmasculine" unicode="&#x2026;" horiz-adv-x="750" 
d="M0 125v-125h125v125h-125zM500 125v-125h125v125h-125zM250 125v-125h125v125h-125z" />
    <glyph glyph-name="Omega" unicode="&#xa0;" horiz-adv-x="127" 
 />
    <glyph glyph-name="radical" unicode="&#x2013;" horiz-adv-x="500" 
d="M375 250v125h-375v-125h375z" />
    <glyph glyph-name="florin" unicode="&#x2014;" 
d="M500 250v125h-500v-125h500z" />
    <glyph glyph-name="approxequal" unicode="&#x201c;" horiz-adv-x="500" 
d="M375 625h-125v-250h125v250zM125 375v250h-125v-250h125z" />
    <glyph glyph-name="Delta" unicode="&#x201d;" horiz-adv-x="500" 
d="M375 625h-125v-250h125v250zM125 375v250h-125v-250h125z" />
    <glyph glyph-name="guillemotleft" unicode="&#x2018;" horiz-adv-x="250" 
d="M125 375v250h-125v-250h125z" />
    <glyph glyph-name="guillemotright" unicode="&#x2019;" horiz-adv-x="250" 
d="M125 375v250h-125v-250h125z" />
    <glyph glyph-name="OE" unicode="&#x203a;" horiz-adv-x="375" 
d="M0 500v-125h125v-125h125v125h-125v125h-125zM0 250v-125h125v125h-125z" />
    <glyph glyph-name="oe" unicode="&#x2021;" horiz-adv-x="500" 
d="M375 375v125h-125v250h-125v-250h-125v-125h125v-125h-125v-125h125v-250h125v250h125v125h-125v125h125z" />
    <glyph glyph-name="endash" unicode="&#x2219;" horiz-adv-x="250" 
d="M0 375v-125h125v125h-125z" />
    <glyph glyph-name="emdash" unicode="&#x201a;" horiz-adv-x="250" 
d="M0 125v-250h125v250h-125z" />
    <glyph glyph-name="quotedblleft" unicode="&#x201e;" horiz-adv-x="500" 
d="M0 125v-250h125v250h-125zM250 125v-250h125v250h-125z" />
    <glyph glyph-name="quotedblright" unicode="&#x2030;" horiz-adv-x="750" 
d="M250 0h125v125h-125v125h-125v-125h125v-125zM500 0h125v125h-125v-125zM125 625h-125v-125h125v125zM0 125v-125h125v125h-125zM625 500v125h-125v-125h125zM500 375v125h-125v-125h125zM375 250v125h-125v-125h125z" />
    <glyph glyph-name="quotedblbase" unicode="&#x2c6;" horiz-adv-x="500" 
d="M250 500v-125h125v125h-125zM0 500v-125h125v125h-125zM250 500v125h-125v-125h125z" />
    <glyph glyph-name="perthousand" horiz-adv-x="500" 
d="M0 625v-625h125v500h125v-500h125v625h-375z" />
    <glyph glyph-name="brokenbar" unicode="&#x2260;" horiz-adv-x="750" 
d="M625 375v125h-125v125h-125v-125h-375v-125h250v-125h-250v-125h125v-125h125v125h375v125h-250v125h250z" />
    <glyph glyph-name="minus" unicode="&#x3c0;" horiz-adv-x="750" 
d="M0 500v-125h125v-375h125v375h125v-375h125v375h125v125h-625z" />
    <glyph glyph-name="onesuperior" unicode="&#x2126;" horiz-adv-x="750" 
d="M500 750h-375v-125h375v-500h125v500h-125v125zM250 0v125h-125v500h-125v-500h125v-125h125zM0 0v-125h125v125h-125zM500 0v125h-125v-125h125zM500 0v-125h125v125h-125z" />
    <glyph glyph-name="twosuperior" unicode="&#x221a;" horiz-adv-x="750" 
d="M125 125v125h-125v-125h125v-125h125v125h-125zM375 375v-125h125v125h-125zM250 250v-125h125v125h-125zM500 500v-125h125v125h-125z" />
    <glyph glyph-name="threesuperior" unicode="&#x2248;" 
d="M250 625v125h-125v-125h125v-124h125v124h-125zM250 250v124h-125v-124h125v-125h125v125h-125zM375 750v-125h125v125h-125zM0 250v-125h125v125h-125zM375 374v-124h125v124h-125zM0 625v-124h125v124h-125z" />
    <glyph glyph-name="threesuperior" unicode="&#x22f2;" 
d="M250 625v125h-125v-125h125v-124h125v124h-125zM250 250v124h-125v-124h125v-125h125v125h-125zM375 750v-125h125v125h-125zM0 250v-125h125v125h-125zM375 374v-124h125v124h-125zM0 625v-124h125v124h-125z" />
    <glyph glyph-name="onehalf" unicode="&#x2206;" horiz-adv-x="750" 
d="M625 250v125h-125v125h-125v125h-125v-125h-125v-125h125v-375h125v375h125v-125h125zM0 375v-125h125v125h-125z" />
    <glyph glyph-name="onequarter" unicode="&#x25ca;" horiz-adv-x="500" 
d="M0 625v-375h375v375h-375zM125 500h125v-125h-125v125z" />
    <glyph glyph-name="threequarters" unicode="&#x2044;" horiz-adv-x="375" 
d="M0 375v-375h125v375h-125zM125 625v-250h125v250h-125z" />
    <glyph glyph-name="Idotaccent" unicode="&#x131;" horiz-adv-x="250" 
d="M0 375v-375h125v375h-125z" />
    <glyph glyph-name="FL2039h" unicode="&#x2039;" horiz-adv-x="375" 
d="M0 375v-125h125v-125h125v125h-125v125h-125zM125 500v-125h125v125h-125z" />
    <glyph glyph-name="FL00B1h" unicode="&#xb1;" horiz-adv-x="500" 
d="M0 0h375v125h-125v125h125v125h-125v125h-125v-125h-125v-125h125v-125h-125v-125z" />
    <glyph glyph-name="FL00C0h" 
d="M0 625v-625h125v250h250v-250h125v625h-500zM375 375h-250v125h250v-125z" />
    <glyph glyph-name="FL00C1h" 
d="M500 500v125h-500v-625h500v250h-125v125h-250v125h375zM370 250v-125h-245v125h245z" />
    <glyph glyph-name="quoteleft" 
d="M0 625v-625h500v250h-125v125h125v250h-500zM370 500v-125h-245v125h245zM370 250v-125h-245v125h245z" />
    <glyph glyph-name="FL00C3h" horiz-adv-x="500" 
d="M375 500v125h-375v-625h125v500h250z" />
    <glyph glyph-name="FL00C4h" horiz-adv-x="750" 
d="M63 500v-375h-63v-125h625v125h-62v500h-375v-125h-125zM438 500v-375h-245v375h245z" />
    <glyph glyph-name="FL00C5h" 
d="M500 500v125h-500v-625h500v125h-375v125h250v125h-250v125h375z" />
    <glyph glyph-name="notequal" horiz-adv-x="750" 
d="M250 0h125v250h125v-250h125v250h-125v125h-125v250h-125v-250h-125v250h-125v-250h125v-125h125v-250zM0 0h125v250h-125v-250zM625 625h-125v-250h125v250z" />
    <glyph glyph-name="FL00C7h" 
d="M0 500h375v-125h-250v-125h250v-125h-375v-125h500v625h-500v-125z" />
    <glyph glyph-name="FL00C8h" 
d="M375 625v-500h-250v500h-125v-500h125v-125h375v625h-125z" />
    <glyph glyph-name="FL00C9h" 
d="M375 625v-500h-250v500h-125v-500h125v-125h375v625h-125zM125 750h250v125h-250v-125z" />
    <glyph glyph-name="quoteright" 
d="M0 0h125v250h250v125h-250v250h-125v-625zM500 0v250h-125v-250h125zM500 625h-125v-250h125v250z" />
    <glyph glyph-name="lozenge" 
d="M375 0h125v625h-375v-125h250v-500zM0 500v-500h125v500h-125z" />
    <glyph glyph-name="guilsinglleft" horiz-adv-x="750" 
d="M500 625v-625h125v625h-125zM125 625h-125v-625h125v625zM375 0v375h-125v-375h125zM500 500h-125v-125h125v125zM125 375h125v125h-125v-125z" />
    <glyph glyph-name="Ydieresis" 
d="M375 625v-250h-250v250h-125v-625h125v250h250v-250h125v625h-125z" />
    <glyph glyph-name="fraction" 
d="M500 625h-500v-625h500v625zM375 125h-250v375h250v-375z" />
    <glyph glyph-name="currency" 
d="M0 625v-625h125v500h250v-500h125v625h-500z" />
    <glyph glyph-name="FL00D1h" 
d="M500 500v125h-500v-625h500v125h-375v375h375z" />
    <glyph glyph-name="fl" horiz-adv-x="500" 
d="M375 625h-375v-125h125v-500h125v500h125v125z" />
    <glyph glyph-name="guilsinglright" 
d="M375 625v-250h-250v250h-125v-375h375v-125h-375v-125h500v625h-125z" />
    <glyph glyph-name="fi" horiz-adv-x="750" 
d="M625 500h-250v125h-125v-125h-250v-375h250v-125h125v125h250v375zM500 250h-125v125h125v-125zM125 250v125h125v-125h-125z" />
    <glyph glyph-name="questiondown" 
d="M500 0v250h-125v125h-250v250h-125v-250h125v-125h250v-250h125zM0 250v-250h125v250h-125zM500 375v250h-125v-250h125z" />
    <glyph glyph-name="FL00D6h" horiz-adv-x="687" 
d="M0 0h562v125h-62v500h-125v-500h-250v500h-125v-625z" />
    <glyph glyph-name="FL00D8h" horiz-adv-x="750" 
d="M625 0v625h-125v-500h-125v500h-125v-500h-125v500h-125v-625h625z" />
    <glyph glyph-name="quotesinglbase" horiz-adv-x="812" 
d="M687 0v125h-62v500h-125v-500h-125v500h-125v-500h-125v500h-125v-625h687z" />
    <glyph glyph-name="daggerdbl" horiz-adv-x="687" 
d="M0 500h62v-500h500v375h-375v250h-187v-125zM437 250v-125h-250v125h250z" />
    <glyph glyph-name="periodcentered" horiz-adv-x="875" 
d="M0 0h500v375h-375v250h-125v-625zM625 0h125v625h-125v-625zM375 250v-125h-250v125h250z" />
    <glyph glyph-name="FL00DCh" 
d="M0 0h500v375h-375v250h-125v-625zM375 250v-125h-250v125h250z" />
    <glyph glyph-name="FL00DFh" 
d="M0 0h130v250h245v-250h125v625h-500v-250h125v-125h-125v-250zM130 500h245v-125h-245v125z" />
    <glyph glyph-name="FL00E0h" 
d="M0 625v-625h125v250h250v-250h125v625h-500zM375 375h-250v125h250v-125z" />
    <glyph glyph-name="FL00E1h" 
d="M500 500v125h-500v-625h500v250h-125v125h-250v125h375zM370 250v-125h-245v125h245z" />
    <glyph glyph-name="FL00E2h" 
d="M0 625v-625h500v250h-125v125h125v250h-500zM370 500v-125h-245v125h245zM370 250v-125h-245v125h245z" />
    <glyph glyph-name="FL00E3h" horiz-adv-x="500" 
d="M375 500v125h-375v-625h125v500h250z" />
    <glyph glyph-name="FL00E4h" horiz-adv-x="750" 
d="M63 500v-375h-63v-125h625v125h-62v500h-375v-125h-125zM438 500v-375h-245v375h245z" />
    <glyph glyph-name="FL00E5h" 
d="M500 500v125h-500v-625h500v125h-375v125h250v125h-250v125h375z" />
    <glyph glyph-name="yen" horiz-adv-x="750" 
d="M250 0h125v250h125v-250h125v250h-125v125h-125v250h-125v-250h-125v250h-125v-250h125v-125h125v-250zM0 0h125v250h-125v-250zM625 625h-125v-250h125v250z" />
    <glyph glyph-name="FL00E7h" 
d="M0 500h375v-125h-250v-125h250v-125h-375v-125h500v625h-500v-125z" />
    <glyph glyph-name="FL00E8h" 
d="M375 625v-500h-250v500h-125v-500h125v-125h375v625h-125z" />
    <glyph glyph-name="FL00E9h" 
d="M375 625v-500h-250v500h-125v-500h125v-125h375v625h-125zM125 750h250v125h-250v-125z" />
    <glyph glyph-name="FL00EAh" 
d="M0 0h125v250h250v125h-250v250h-125v-625zM500 0v250h-125v-250h125zM500 625h-125v-250h125v250z" />
    <glyph glyph-name="FL00EBh" 
d="M375 0h125v625h-375v-125h250v-500zM0 500v-500h125v500h-125z" />
    <glyph glyph-name="FL00ECh" horiz-adv-x="750" 
d="M500 625v-625h125v625h-125zM125 625h-125v-625h125v625zM375 0v375h-125v-375h125zM500 500h-125v-125h125v125zM125 375h125v125h-125v-125z" />
    <glyph glyph-name="FL00EDh" 
d="M375 625v-250h-250v250h-125v-625h125v250h250v-250h125v625h-125z" />
    <glyph glyph-name="FL00EEh" 
d="M500 625h-500v-625h500v625zM375 125h-250v375h250v-375z" />
    <glyph glyph-name="FL00EFh" 
d="M0 625v-625h125v500h250v-500h125v625h-500z" />
    <glyph glyph-name="FL00F1h" 
d="M500 500v125h-500v-625h500v125h-375v375h375z" />
    <glyph glyph-name="FL00F2h" horiz-adv-x="500" 
d="M375 625h-375v-125h125v-500h125v500h125v125z" />
    <glyph glyph-name="FL00F3h" 
d="M375 625v-250h-250v250h-125v-375h375v-125h-375v-125h500v625h-125z" />
    <glyph glyph-name="FL00F4h" horiz-adv-x="750" 
d="M625 500h-250v125h-125v-125h-250v-375h250v-125h125v125h250v375zM500 250h-125v125h125v-125zM125 250v125h125v-125h-125z" />
    <glyph glyph-name="FL00F5h" 
d="M500 0v250h-125v125h-250v250h-125v-250h125v-125h250v-250h125zM0 250v-250h125v250h-125zM500 375v250h-125v-250h125z" />
    <glyph glyph-name="FL00F6h" horiz-adv-x="687" 
d="M0 0h562v125h-62v500h-125v-500h-250v500h-125v-625z" />
    <glyph glyph-name="ellipsis" 
d="M375 625v-250h-250v250h-125v-375h375v-250h125v625h-125z" />
    <glyph glyph-name="mu" horiz-adv-x="750" 
d="M625 0v625h-125v-500h-125v500h-125v-500h-125v500h-125v-625h625z" />
    <glyph glyph-name="FL00F9h" horiz-adv-x="812" 
d="M687 0v125h-62v500h-125v-500h-125v500h-125v-500h-125v500h-125v-625h687z" />
    <glyph glyph-name="FL00FAh" horiz-adv-x="687" 
d="M0 500h62v-500h500v375h-375v250h-187v-125zM437 250v-125h-250v125h250z" />
    <glyph glyph-name="FL00FBh" horiz-adv-x="875" 
d="M0 0h500v375h-375v250h-125v-625zM625 0h125v625h-125v-625zM375 250v-125h-250v125h250z" />
    <glyph glyph-name="FL00FCh" 
d="M0 0h500v375h-375v250h-125v-625zM375 250v-125h-250v125h250z" />
    <glyph glyph-name="nonbreakingspace" 
d="M0 0h130v250h245v-250h125v625h-500v-250h125v-125h-125v-250zM130 500h245v-125h-245v125z" />
    <glyph glyph-name="Agrave" unicode="&#xc0;" 
d="M0 625v-625h125v250h250v-250h125v625h-500zM375 375h-250v125h250v-125z" />
    <glyph glyph-name="Aacute" unicode="&#xc1;" 
d="M500 500v125h-500v-625h500v250h-125v125h-250v125h375zM370 250v-125h-245v125h245z" />
    <glyph glyph-name="Acircumflex" unicode="&#xc2;" 
d="M0 625v-625h500v250h-125v125h125v250h-500zM370 500v-125h-245v125h245zM370 250v-125h-245v125h245z" />
    <glyph glyph-name="Atilde" unicode="&#xc3;" horiz-adv-x="500" 
d="M375 500v125h-375v-625h125v500h250z" />
    <glyph glyph-name="Adieresis" unicode="&#xc4;" horiz-adv-x="750" 
d="M63 500v-375h-63v-125h625v125h-62v500h-375v-125h-125zM438 500v-375h-245v375h245z" />
    <glyph glyph-name="Aring" unicode="&#xc5;" 
d="M500 500v125h-500v-625h500v125h-375v125h250v125h-250v125h375z" />
    <glyph glyph-name="AE" unicode="&#xc6;" horiz-adv-x="750" 
d="M250 0h125v250h125v-250h125v250h-125v125h-125v250h-125v-250h-125v250h-125v-250h125v-125h125v-250zM0 0h125v250h-125v-250zM625 625h-125v-250h125v250z" />
    <glyph glyph-name="Ccedilla" unicode="&#xc7;" 
d="M0 500h375v-125h-250v-125h250v-125h-375v-125h500v625h-500v-125z" />
    <glyph glyph-name="Egrave" unicode="&#xc8;" 
d="M375 625v-500h-250v500h-125v-500h125v-125h375v625h-125z" />
    <glyph glyph-name="Eacute" unicode="&#xc9;" 
d="M375 625v-500h-250v500h-125v-500h125v-125h375v625h-125zM125 750h250v125h-250v-125z" />
    <glyph glyph-name="Ecircumflex" unicode="&#xca;" 
d="M0 0h125v250h250v125h-250v250h-125v-625zM500 0v250h-125v-250h125zM500 625h-125v-250h125v250z" />
    <glyph glyph-name="Edieresis" unicode="&#xcb;" 
d="M375 0h125v625h-375v-125h250v-500zM0 500v-500h125v500h-125z" />
    <glyph glyph-name="Igrave" unicode="&#xcc;" horiz-adv-x="750" 
d="M500 625v-625h125v625h-125zM125 625h-125v-625h125v625zM375 0v375h-125v-375h125zM500 500h-125v-125h125v125zM125 375h125v125h-125v-125z" />
    <glyph glyph-name="Iacute" unicode="&#xcd;" 
d="M375 625v-250h-250v250h-125v-625h125v250h250v-250h125v625h-125z" />
    <glyph glyph-name="Icircumflex" unicode="&#xce;" 
d="M500 625h-500v-625h500v625zM375 125h-250v375h250v-375z" />
    <glyph glyph-name="Idieresis" unicode="&#xcf;" 
d="M0 625v-625h125v500h250v-500h125v625h-500z" />
    <glyph glyph-name="Ntilde" unicode="&#xd1;" 
d="M500 500v125h-500v-625h500v125h-375v375h375z" />
    <glyph glyph-name="Ograve" unicode="&#xd2;" horiz-adv-x="500" 
d="M375 625h-375v-125h125v-500h125v500h125v125z" />
    <glyph glyph-name="Oacute" unicode="&#xd3;" 
d="M375 625v-250h-250v250h-125v-375h375v-125h-375v-125h500v625h-125z" />
    <glyph glyph-name="Ocircumflex" unicode="&#xd4;" horiz-adv-x="750" 
d="M625 500h-250v125h-125v-125h-250v-375h250v-125h125v125h250v375zM500 250h-125v125h125v-125zM125 250v125h125v-125h-125z" />
    <glyph glyph-name="Otilde" unicode="&#xd5;" 
d="M500 0v250h-125v125h-250v250h-125v-250h125v-125h250v-250h125zM0 250v-250h125v250h-125zM500 375v250h-125v-250h125z" />
    <glyph glyph-name="Odieresis" unicode="&#xd6;" horiz-adv-x="687" 
d="M0 0h562v125h-62v500h-125v-500h-250v500h-125v-625z" />
    <glyph glyph-name="Oslash" unicode="&#xd8;" horiz-adv-x="750" 
d="M625 0v625h-125v-500h-125v500h-125v-500h-125v500h-125v-625h625z" />
    <glyph glyph-name="Ugrave" unicode="&#xd9;" horiz-adv-x="812" 
d="M687 0v125h-62v500h-125v-500h-125v500h-125v-500h-125v500h-125v-625h687z" />
    <glyph glyph-name="Uacute" unicode="&#xda;" horiz-adv-x="687" 
d="M0 500h62v-500h500v375h-375v250h-187v-125zM437 250v-125h-250v125h250z" />
    <glyph glyph-name="Ucircumflex" unicode="&#xdb;" horiz-adv-x="875" 
d="M0 0h500v375h-375v250h-125v-625zM625 0h125v625h-125v-625zM375 250v-125h-250v125h250z" />
    <glyph glyph-name="Udieresis" unicode="&#xdc;" 
d="M0 0h500v375h-375v250h-125v-625zM375 250v-125h-250v125h250z" />
    <glyph glyph-name="germandbls" unicode="&#xdf;" 
d="M0 0h130v250h245v-250h125v625h-500v-250h125v-125h-125v-250zM130 500h245v-125h-245v125z" />
    <glyph glyph-name="agrave" unicode="&#xe0;" 
d="M0 625v-625h125v250h250v-250h125v625h-500zM375 375h-250v125h250v-125z" />
    <glyph glyph-name="aacute" unicode="&#xe1;" 
d="M500 500v125h-500v-625h500v250h-125v125h-250v125h375zM370 250v-125h-245v125h245z" />
    <glyph glyph-name="acircumflex" unicode="&#xe2;" 
d="M0 625v-625h500v250h-125v125h125v250h-500zM370 500v-125h-245v125h245zM370 250v-125h-245v125h245z" />
    <glyph glyph-name="atilde" unicode="&#xe3;" horiz-adv-x="500" 
d="M375 500v125h-375v-625h125v500h250z" />
    <glyph glyph-name="adieresis" unicode="&#xe4;" horiz-adv-x="750" 
d="M63 500v-375h-63v-125h625v125h-62v500h-375v-125h-125zM438 500v-375h-245v375h245z" />
    <glyph glyph-name="aring" unicode="&#xe5;" 
d="M500 500v125h-500v-625h500v125h-375v125h250v125h-250v125h375z" />
    <glyph glyph-name="ae" unicode="&#xe6;" horiz-adv-x="750" 
d="M250 0h125v250h125v-250h125v250h-125v125h-125v250h-125v-250h-125v250h-125v-250h125v-125h125v-250zM0 0h125v250h-125v-250zM625 625h-125v-250h125v250z" />
    <glyph glyph-name="ccedilla" unicode="&#xe7;" 
d="M0 500h375v-125h-250v-125h250v-125h-375v-125h500v625h-500v-125z" />
    <glyph glyph-name="egrave" unicode="&#xe8;" 
d="M375 625v-500h-250v500h-125v-500h125v-125h375v625h-125z" />
    <glyph glyph-name="eacute" unicode="&#xe9;" 
d="M375 625v-500h-250v500h-125v-500h125v-125h375v625h-125zM125 750h250v125h-250v-125z" />
    <glyph glyph-name="ecircumflex" unicode="&#xea;" 
d="M0 0h125v250h250v125h-250v250h-125v-625zM500 0v250h-125v-250h125zM500 625h-125v-250h125v250z" />
    <glyph glyph-name="edieresis" unicode="&#xeb;" 
d="M375 0h125v625h-375v-125h250v-500zM0 500v-500h125v500h-125z" />
    <glyph glyph-name="igrave" unicode="&#xec;" horiz-adv-x="750" 
d="M500 625v-625h125v625h-125zM125 625h-125v-625h125v625zM375 0v375h-125v-375h125zM500 500h-125v-125h125v125zM125 375h125v125h-125v-125z" />
    <glyph glyph-name="iacute" unicode="&#xed;" 
d="M375 625v-250h-250v250h-125v-625h125v250h250v-250h125v625h-125z" />
    <glyph glyph-name="icircumflex" unicode="&#xee;" 
d="M500 625h-500v-625h500v625zM375 125h-250v375h250v-375z" />
    <glyph glyph-name="idieresis" unicode="&#xef;" 
d="M0 625v-625h125v500h250v-500h125v625h-500z" />
    <glyph glyph-name="ntilde" unicode="&#xf1;" 
d="M500 500v125h-500v-625h500v125h-375v375h375z" />
    <glyph glyph-name="ograve" unicode="&#xf2;" horiz-adv-x="500" 
d="M375 625h-375v-125h125v-500h125v500h125v125z" />
    <glyph glyph-name="oacute" unicode="&#xf3;" 
d="M375 625v-250h-250v250h-125v-375h375v-125h-375v-125h500v625h-125z" />
    <glyph glyph-name="ocircumflex" unicode="&#xf4;" horiz-adv-x="750" 
d="M625 500h-250v125h-125v-125h-250v-375h250v-125h125v125h250v375zM500 250h-125v125h125v-125zM125 250v125h125v-125h-125z" />
    <glyph glyph-name="otilde" unicode="&#xf5;" 
d="M500 0v250h-125v125h-250v250h-125v-250h125v-125h250v-250h125zM0 250v-250h125v250h-125zM500 375v250h-125v-250h125z" />
    <glyph glyph-name="odieresis" unicode="&#xf6;" horiz-adv-x="687" 
d="M0 0h562v125h-62v500h-125v-500h-250v500h-125v-625z" />
    <glyph glyph-name="divide" unicode="&#xf7;" 
d="M375 625v-250h-250v250h-125v-375h375v-250h125v625h-125z" />
    <glyph glyph-name="oslash" unicode="&#xf8;" horiz-adv-x="750" 
d="M625 0v625h-125v-500h-125v500h-125v-500h-125v500h-125v-625h625z" />
    <glyph glyph-name="ugrave" unicode="&#xf9;" horiz-adv-x="812" 
d="M687 0v125h-62v500h-125v-500h-125v500h-125v-500h-125v500h-125v-625h687z" />
    <glyph glyph-name="uacute" unicode="&#xfa;" horiz-adv-x="687" 
d="M0 500h62v-500h500v375h-375v250h-187v-125zM437 250v-125h-250v125h250z" />
    <glyph glyph-name="ucircumflex" unicode="&#xfb;" horiz-adv-x="875" 
d="M0 0h500v375h-375v250h-125v-625zM625 0h125v625h-125v-625zM375 250v-125h-250v125h250z" />
    <glyph glyph-name="udieresis" unicode="&#xfc;" 
d="M0 0h500v375h-375v250h-125v-625zM375 250v-125h-250v125h250z" />
    <glyph glyph-name="ydieresis" unicode="&#xff;" 
d="M0 0h130v250h245v-250h125v625h-500v-250h125v-125h-125v-250zM130 500h245v-125h-245v125z" />
    <glyph glyph-name="tilde" unicode="&#x2dc;" 
d="M250 375v125h-125v-125h125v-125h125v125h-125zM0 375v-125h125v125h-125zM375 500v-125h125v125h-125z" />
    <glyph glyph-name="periodcentered" unicode="&#xb7;" horiz-adv-x="250" 
d="M0 375v-125h125v125h-125z" />
    <glyph glyph-name="periodcentered" unicode="&#x22c5;" horiz-adv-x="250" 
d="M0 375v-125h125v125h-125z" />
    <glyph glyph-name="exclamdown" unicode="&#xa1;" horiz-adv-x="250" 
d="M0 0h125v375h-125v-375zM125 500v125h-125v-125h125z" />
    <glyph glyph-name="quotedbl" unicode="&#x22;" horiz-adv-x="500" 
d="M375 625h-125v-250h125v250zM125 375v250h-125v-250h125z" />
    <glyph glyph-name="exclam" unicode="!" horiz-adv-x="250" 
d="M125 625h-125v-375h125v375zM0 125v-125h125v125h-125z" />
    <glyph glyph-name="FL405" 
d="M0 625v-625h125v250h250v-250h125v625h-500zM375 375h-250v125h250v-125zM0 876v-125h125v125h-125zM375 875v-125h125v125h-125z" />
    <glyph glyph-name="FL406" 
d="M0 625v-625h125v250h250v-250h125v625h-125v125h125v125h-125v125h-250v-125h-125v-125h125v-126zM375 375h-250v125h250v-125zM125 755v115h250v-115h-250z" />
    <glyph glyph-name="FL408" 
d="M125 -250h250v250h125v125h-375v375h375v125h-500v-625h250v-125h-125v-125z" />
    <glyph glyph-name="FL410" 
d="M500 500v125h-500v-625h500v125h-375v125h250v125h-250v125h375zM250 875h-125v-125h125v125zM250 875h125v125h-125v-125z" />
    <glyph glyph-name="FL418" 
d="M0 625v-625h125v500h250v-500h125v625h-500zM250 876v125h-125v-125h125v-125h125v125h-125zM0 876v-125h125v125h-125zM375 1001v-125h125v125h-125z" />
    <glyph glyph-name="FL423" 
d="M500 625h-500v-625h500v625zM375 125h-250v375h250v-375zM0 876v-125h125v125h-125zM375 875v-125h125v125h-125z" />
    <glyph glyph-name="FL429" 
d="M375 625v-500h-250v500h-125v-625h500v625h-125zM375 875v-125h125v125h-125zM0 876v-125h125v125h-125z" />
    <glyph glyph-name="FL434" 
d="M0 625v-625h125v250h250v-250h125v625h-500zM375 375h-250v125h250v-125zM250 875h-125v-125h125v125zM250 875h125v125h-125v-125z" />
    <glyph glyph-name="FL433" 
d="M0 625v-625h125v250h250v-250h125v625h-500zM375 375h-250v125h250v-125zM250 875v-125h125v125h-125zM250 875v125h-125v-125h125z" />
    <glyph glyph-name="FL435" 
d="M0 625v-625h125v250h250v-250h125v625h-500zM375 375h-250v125h250v-125zM375 875v125h-250v-125h250zM375 875v-125h125v125h-125zM0 875v-125h125v125h-125z" />
    <glyph glyph-name="FL437" 
d="M0 625v-625h125v250h250v-250h125v625h-500zM375 375h-250v125h250v-125zM0 876v-125h125v125h-125zM375 875v-125h125v125h-125z" />
    <glyph glyph-name="FL436" 
d="M0 625v-625h125v250h250v-250h125v625h-500zM375 375h-250v125h250v-125zM250 876v125h-125v-125h125v-125h125v125h-125zM375 1001v-125h125v125h-125zM0 876v-125h125v125h-125z" />
    <glyph glyph-name="FL438" 
d="M0 625v-625h125v250h250v-250h125v625h-125v125h125v125h-125v125h-250v-125h-125v-125h125v-126zM375 375h-250v125h250v-125zM125 755v115h250v-115h-250z" />
    <glyph glyph-name="FL440" horiz-adv-x="1500" 
d="M1375 625h-1375v-625h875v500h125v-500h125v500h125v-500h125v625zM375 125h-250v375h250v-375zM750 125h-250v375h250v-375z" />
    <glyph glyph-name="FL442" 
d="M500 500v125h-500v-625h500v125h-375v125h250v125h-250v125h375zM250 875h-125v-125h125v125zM250 875h125v125h-125v-125z" />
    <glyph glyph-name="FL441" 
d="M500 500v125h-500v-625h500v125h-375v125h250v125h-250v125h375zM250 875v125h-125v-125h125zM250 875v-125h125v125h-125z" />
    <glyph glyph-name="FL443" 
d="M500 500v125h-500v-625h500v125h-375v125h250v125h-250v125h375zM375 875v125h-250v-125h250zM0 875v-125h125v125h-125zM375 875v-125h125v125h-125z" />
    <glyph glyph-name="FL444" 
d="M500 500v125h-500v-625h500v125h-375v125h250v125h-250v125h375zM375 875v-125h125v125h-125zM0 876v-125h125v125h-125z" />
    <glyph glyph-name="FL446" horiz-adv-x="375" 
d="M0 625v-625h125v625h-125zM125 875h125v125h-125v-125zM125 875h-125v-125h125v125z" />
    <glyph glyph-name="FL445" horiz-adv-x="375" 
d="M125 625v-625h125v625h-125zM125 875v125h-125v-125h125zM125 875v-125h125v125h-125z" />
    <glyph glyph-name="FL447" horiz-adv-x="500" 
d="M125 625v-625h125v625h-125zM0 875v-125h125v125h-125zM250 875v125h-125v-125h125zM250 875v-125h125v125h-125z" />
    <glyph glyph-name="FL448" horiz-adv-x="500" 
d="M125 625v-625h125v625h-125zM250 875v-125h125v125h-125zM0 875v-125h125v125h-125z" />
    <glyph glyph-name="FL450" 
d="M0 625v-625h125v500h250v-500h125v625h-500zM250 876v125h-125v-125h125v-125h125v125h-125zM0 876v-125h125v125h-125zM375 1001v-125h125v125h-125z" />
    <glyph glyph-name="FL452" 
d="M500 625h-500v-625h500v625zM375 125h-250v375h250v-375zM250 875h-125v-125h125v125zM250 875h125v125h-125v-125z" />
    <glyph glyph-name="FL451" 
d="M500 625h-500v-625h500v625zM375 125h-250v375h250v-375zM250 875v-125h125v125h-125zM250 875v125h-125v-125h125z" />
    <glyph glyph-name="FL453" 
d="M500 625h-500v-625h500v625zM375 125h-250v375h250v-375zM375 875v125h-250v-125h250zM375 875v-125h125v125h-125zM0 875v-125h125v125h-125z" />
    <glyph glyph-name="FL455" 
d="M500 625h-500v-625h500v625zM375 125h-250v375h250v-375zM0 876v-125h125v125h-125zM375 875v-125h125v125h-125z" />
    <glyph glyph-name="FL454" 
d="M500 625h-500v-625h500v625zM375 125h-250v375h250v-375zM250 876v125h-125v-125h125v-125h125v125h-125zM375 1001v-125h125v125h-125zM0 876v-125h125v125h-125z" />
    <glyph glyph-name="FL459" 
d="M375 625v-500h-250v500h-125v-625h500v625h-125zM250 875h125v125h-125v-125zM250 875h-125v-125h125v125z" />
    <glyph glyph-name="FL458" 
d="M375 625v-500h-250v500h-125v-625h500v625h-125zM250 875v125h-125v-125h125zM250 875v-125h125v125h-125z" />
    <glyph glyph-name="FL460" 
d="M375 625v-500h-250v500h-125v-625h500v625h-125zM375 875v125h-250v-125h250zM0 875v-125h125v125h-125zM375 875v-125h125v125h-125z" />
    <glyph glyph-name="FL461" 
d="M375 625v-500h-250v500h-125v-625h500v625h-125zM375 875v-125h125v125h-125zM0 876v-125h125v125h-125z" />
    <glyph glyph-name="FL432" 
d="M500 375v250h-500v-625h125v500h250v-125h125zM250 125v-125h250v250h-125v125h-125v-125h125v-125h-125z" />
    <glyph glyph-name="FL407" horiz-adv-x="1000" 
d="M875 500v125h-875v-625h125v250h250v-250h500v125h-375v125h250v125h-250v125h375zM375 375h-250v125h250v-125z" />
    <glyph glyph-name="FL425" horiz-adv-x="750" 
d="M625 625h-625v-625h625v625zM375 375h125v-250h-250v125h125v125zM245 375v-125h-120v250h245v-125h-125z" />
    <glyph glyph-name="FL535" horiz-adv-x="500" 
d="M0 0h375v125h-125v125h125v125h-125v125h-125v-125h-125v-125h125v-125h-125v-125z" />
    <glyph glyph-name="FL439" horiz-adv-x="1000" 
d="M875 500v125h-875v-625h125v250h250v-250h500v125h-375v125h250v125h-250v125h375zM375 375h-250v125h250v-125z" />
    <glyph glyph-name="FL457" horiz-adv-x="750" 
d="M625 625h-625v-625h625v625zM375 375h125v-250h-250v125h125v125zM245 375v-125h-120v250h245v-125h-125z" />
    <glyph glyph-name="FL401" 
d="M0 625v-625h125v250h250v-250h125v625h-500zM375 375h-250v125h250v-125zM250 875v-125h125v125h-125zM250 875v125h-125v-125h125z" />
    <glyph glyph-name="FL404" 
d="M0 625v-625h125v250h250v-250h125v625h-500zM375 375h-250v125h250v-125zM250 876v125h-125v-125h125v-125h125v125h-125zM375 1001v-125h125v125h-125zM0 876v-125h125v125h-125z" />
    <glyph glyph-name="FL422" 
d="M500 625h-500v-625h500v625zM375 125h-250v375h250v-375zM250 876v125h-125v-125h125v-125h125v125h-125zM375 1001v-125h125v125h-125zM0 876v-125h125v125h-125z" />
    <glyph glyph-name="FL456" horiz-adv-x="500" 
d="M375 250v125h-375v-125h375zM250 0v125h-125v-125h125zM250 500v125h-125v-125h125z" />
    <glyph glyph-name="FL464" 
d="M375 625v-250h-250v250h-125v-375h375v-125h-375v-125h500v625h-125zM0 876v-125h125v125h-125zM375 875v-125h125v125h-125z" />
    <glyph glyph-name="FL511" 
d="M375 625v-250h-250v250h-125v-375h375v-125h-375v-125h500v625h-125zM0 876v-125h125v125h-125zM375 875v-125h125v125h-125z" />
    <glyph glyph-name="FL514" horiz-adv-x="500" 
d="M0 625v-375h375v375h-375zM125 500h125v-125h-125v125z" />
    <glyph glyph-name="FL532" horiz-adv-x="375" 
d="M0 375v-125h125v-125h125v125h-125v125h-125zM125 500v-125h125v125h-125z" />
    <glyph glyph-name="FL403" 
d="M0 625v-625h125v250h250v-250h125v625h-500zM375 375h-250v125h250v-125zM375 875v125h-250v-125h250zM375 875v-125h125v125h-125zM0 875v-125h125v125h-125z" />
    <glyph glyph-name="FL411" 
d="M500 500v125h-500v-625h500v125h-375v125h250v125h-250v125h375zM375 875v125h-250v-125h250zM0 875v-125h125v125h-125zM375 875v-125h125v125h-125z" />
    <glyph glyph-name="FL402" 
d="M0 625v-625h125v250h250v-250h125v625h-500zM375 375h-250v125h250v-125zM250 875h-125v-125h125v125zM250 875h125v125h-125v-125z" />
    <glyph glyph-name="FL412" 
d="M500 500v125h-500v-625h500v125h-375v125h250v125h-250v125h375zM375 875v125h-250v-125h250zM0 875v-125h125v125h-125zM375 875v-125h125v125h-125z" />
    <glyph glyph-name="FL409" 
d="M500 500v125h-500v-625h500v125h-375v125h250v125h-250v125h375zM250 875v125h-125v-125h125zM250 875v-125h125v125h-125z" />
    <glyph glyph-name="FL414" 
d="M500 500v125h-500v-625h500v125h-375v375h375zM125 1000v-125h125v-125h125v125h-125v125h-125zM500 1000h-125v-125h125v125z" />
    <glyph glyph-name="FL415" 
d="M500 500v125h-500v-625h500v125h-375v375h375zM125 750h125v125h-125v-125zM375 875v125h-125v-125h125z" />
    <glyph glyph-name="FL416" 
d="M500 500v125h-500v-625h500v125h-375v375h375zM125 1000v-125h125v-125h125v125h-125v125h-125zM500 1000h-125v-125h125v125z" />
    <glyph glyph-name="FL413" 
d="M500 500v125h-500v-625h500v125h-375v375h375zM125 750h125v125h-125v-125zM375 875v125h-125v-125h125z" />
    <glyph glyph-name="FL420" 
d="M500 625h-500v-625h500v625zM375 125h-250v375h250v-375zM250 875h-125v-125h125v125zM250 875h125v125h-125v-125z" />
    <glyph glyph-name="FL421" 
d="M500 625h-500v-625h500v625zM375 125h-250v375h250v-375zM375 875v125h-250v-125h250zM375 875v-125h125v125h-125zM0 875v-125h125v125h-125z" />
    <glyph glyph-name="FL419" 
d="M500 625h-500v-625h500v625zM375 125h-250v375h250v-375zM250 875v-125h125v125h-125zM250 875v125h-125v-125h125z" />
    <glyph glyph-name="FL427" 
d="M375 625v-500h-250v500h-125v-625h500v625h-125zM250 875h125v125h-125v-125zM250 875h-125v-125h125v125z" />
    <glyph glyph-name="FL428" 
d="M375 625v-500h-250v500h-125v-625h500v625h-125zM375 875v125h-250v-125h250zM0 875v-125h125v125h-125zM375 875v-125h125v125h-125z" />
    <glyph glyph-name="FL426" 
d="M375 625v-500h-250v500h-125v-625h500v625h-125zM250 875v125h-125v-125h125zM250 875v-125h125v125h-125z" />
    <glyph glyph-name="FL521" horiz-adv-x="250" 
d="M0 125v-250h125v250h-125z" />
    <glyph glyph-name="FL512" 
d="M125 500h375v125h-500v-375h375v-125h-375v-125h500v375h-375v125zM125 1000v-125h125v-125h125v125h-125v125h-125zM500 1000h-125v-125h125v125z" />
    <glyph glyph-name="FL522" 
d="M125 500h375v125h-500v-375h375v-125h-375v-125h500v375h-375v125zM125 1000v-125h125v-125h125v125h-125v125h-125zM500 1000h-125v-125h125v125z" />
    <glyph glyph-name="FL417" horiz-adv-x="750" 
d="M0 375v-125h125v-250h375v125h125v375h-125v125h-375v-250h-125zM250 375v125h245v-375h-245v125h125v125h-125z" />
    <glyph glyph-name="FL449" horiz-adv-x="750" 
d="M0 375v-125h125v-250h375v125h125v375h-125v125h-375v-250h-125zM250 375v125h245v-375h-245v125h125v125h-125z" />
    <glyph glyph-name="FL430" 
d="M375 625v-250h-250v250h-125v-375h375v-125h-375v-125h500v625h-125zM125 750h125v125h-125v-125zM375 875v125h-125v-125h125z" />
    <glyph glyph-name="FL462" 
d="M375 625v-250h-250v250h-125v-375h375v-125h-375v-125h500v625h-125zM125 750h125v125h-125v-125zM375 875v125h-125v-125h125z" />
    <glyph glyph-name="FL431" 
d="M0 625v-625h125v125h250v125h125v125h-125v125h-250v125h-125zM125 250v125h245v-125h-245z" />
    <glyph glyph-name="FL463" 
d="M0 625v-625h125v125h250v125h125v125h-125v125h-250v125h-125zM125 250v125h245v-125h-245z" />
    <glyph glyph-name="apple" unicode="&#xad;" horiz-adv-x="500" 
d="M375 250v125h-375v-125h375z" />
    <glyph glyph-name="apple" unicode="&#x2212;" horiz-adv-x="500" 
d="M375 250v125h-375v-125h375z" />
    <glyph glyph-name="FL424" horiz-adv-x="500" 
d="M125 375v-125h125v-125h125v125h-125v125h-125zM375 375v125h-125v-125h125zM0 250v-125h125v125h-125zM125 375v125h-125v-125h125z" />
    <glyph glyph-name="FL527" horiz-adv-x="750" 
d="M625 625h-625v-375h625v375zM375 500h125v-125h-125v125zM250 375h-125v125h125v-125z" />
    <glyph glyph-name="FL556" 
d="M0 0h500v125h-500v-125zM0 500v-125h250v-125h250v125h-250v125h-250zM500 500v125h-250v-125h250z" />
    <glyph glyph-name="FL537" 
d="M500 0v125h-500v-125h500zM500 500h-250v125h-250v-125h250v-125h250v125zM0 375v-125h250v125h-250z" />
    <glyph glyph-name="FL569" horiz-adv-x="500" 
d="M125 750v-125h-125v-375h375v375h-125v125h-125zM125 500h125v-125h-125v125z" />
    <glyph glyph-name="FL538" horiz-adv-x="1750" 
d="M1625 0v625h-125v-500h-125v500h-125v-500h-125v500h-125v-500h-125v500h-125v-500h-125v500h-125v-500h-125v500h-125v-500h-125v500h-125v-625h1625z" />
    <glyph glyph-name="FL570" horiz-adv-x="750" 
d="M0 625v-125h125v-500h125v500h125v-500h125v500h125v125h-625z" />
    <glyph glyph-name="FL534" horiz-adv-x="500" 
d="M250 0v625h-125v-625h125zM375 625v125h-125v-125h125zM0 0v-125h125v125h-125z" />
    <glyph glyph-name="franc" unicode="&#xf001;" horiz-adv-x="750" 
d="M250 500v-250h-125v125h-125v-125h125v-125h125v-125h125v125h125v125h-125v375h-375v-125h250zM625 250v125h-125v-125h125z" />
    <glyph glyph-name="Gbreve" unicode="&#xf002;" horiz-adv-x="875" 
d="M375 500v375h-375v-375h375zM0 125v-125h750v125h-750zM0 375v-125h750v125h-750z" />
    <glyph glyph-name="gbreve" unicode="&#xf000;" horiz-adv-x="500" 
d="M250 375v-250h125v250h-125v125h-125v-125h125zM125 125v-125h125v125h-125zM0 375v-125h125v125h-125z" />
    <glyph glyph-name="FL0410h" 
d="M0 625v-625h125v250h250v-250h125v625h-500zM375 375h-250v125h250v-125z" />
    <glyph glyph-name="FL0412h" 
d="M0 625v-625h500v250h-125v125h125v250h-500zM370 500v-125h-245v125h245zM370 250v-125h-245v125h245z" />
    <glyph glyph-name="FL0421h" 
d="M500 500v125h-500v-625h500v125h-375v375h375z" />
    <glyph glyph-name="FL0415h" 
d="M500 500v125h-500v-625h500v125h-375v125h250v125h-250v125h375z" />
    <glyph glyph-name="FL041Dh" 
d="M375 625v-250h-250v250h-125v-625h125v250h250v-250h125v625h-125z" />
    <glyph glyph-name="FL041Ah" 
d="M0 0h125v250h250v125h-250v250h-125v-625zM500 0v250h-125v-250h125zM500 625h-125v-250h125v250z" />
    <glyph glyph-name="FL041Fh" 
d="M0 625v-625h125v500h250v-500h125v625h-500z" />
    <glyph glyph-name="FL041Eh" 
d="M500 625h-500v-625h500v625zM375 125h-250v375h250v-375z" />
    <glyph glyph-name="FL0420h" 
d="M0 625v-625h125v250h375v375h-500zM375 375h-250v125h250v-125z" />
    <glyph glyph-name="FL0422h" horiz-adv-x="500" 
d="M375 625h-375v-125h125v-500h125v500h125v125z" />
    <glyph glyph-name="FL0428h" horiz-adv-x="750" 
d="M625 0v625h-125v-500h-125v500h-125v-500h-125v500h-125v-625h625z" />
    <glyph glyph-name="FL0425h" 
d="M500 0v250h-125v125h-250v250h-125v-250h125v-125h250v-250h125zM0 250v-250h125v250h-125zM500 375v250h-125v-250h125z" />
    <glyph glyph-name="FL0423h" 
d="M375 625v-250h-250v250h-125v-375h375v-125h-375v-125h500v625h-125z" />
    <glyph glyph-name="FL0411h" 
d="M500 500v125h-500v-625h500v250h-130v125h-245v125h375zM370 250v-125h-245v125h245z" />
    <glyph glyph-name="FL0413h" horiz-adv-x="500" 
d="M375 500v125h-375v-625h125v500h250z" />
    <glyph glyph-name="FL0416h" horiz-adv-x="750" 
d="M250 0h125v250h125v-250h125v250h-125v125h-125v250h-125v-250h-125v250h-125v-250h125v-125h125v-250zM0 0h125v250h-125v-250zM625 625h-125v-250h125v250z" />
    <glyph glyph-name="FL0417h" 
d="M0 500h375v-125h-250v-125h250v-125h-375v-125h500v625h-500v-125z" />
    <glyph glyph-name="FL0418h" 
d="M375 625v-500h-250v500h-125v-500h125v-125h375v625h-125z" />
    <glyph glyph-name="FL0419h" 
d="M375 625v-500h-250v500h-125v-500h125v-125h375v625h-125zM125 750h250v125h-250v-125z" />
    <glyph glyph-name="FL041Bh" 
d="M375 0h125v625h-375v-125h250v-500zM0 500v-500h125v500h-125z" />
    <glyph glyph-name="FL0414h" horiz-adv-x="750" 
d="M63 500v-375h-63v-125h625v125h-62v500h-375v-125h250v-375h-250v375h-125z" />
    <glyph glyph-name="FL041Ch" horiz-adv-x="750" 
d="M500 625v-625h125v625h-125zM125 625h-125v-625h125v625zM375 0v375h-125v-375h125zM500 500h-125v-125h125v125zM125 375h125v125h-125v-125z" />
    <glyph glyph-name="FL0429h" horiz-adv-x="812" 
d="M687 0v125h-62v500h-125v-500h-125v500h-125v-500h-125v500h-125v-625h687z" />
    <glyph glyph-name="FL042Fh" 
d="M375 250v-250h125v625h-500v-250h125v-125h250zM0 0h125v250h-125v-250zM125 375v125h250v-125h-250z" />
    <glyph glyph-name="FL042Ch" 
d="M0 0h500v375h-375v250h-125v-625zM375 250v-125h-250v125h250z" />
    <glyph glyph-name="FL042Ah" horiz-adv-x="687" 
d="M0 500h62v-500h500v375h-375v250h-187v-125zM437 250v-125h-250v125h250z" />
    <glyph glyph-name="FL042Bh" horiz-adv-x="875" 
d="M0 0h500v375h-375v250h-125v-625zM625 0h125v625h-125v-625zM375 250v-125h-250v125h250z" />
    <glyph glyph-name="FL042Dh" 
d="M0 500h375v-125h-250v-125h250v-125h-375v-125h375v125h125v375h-125v125h-375v-125z" />
    <glyph glyph-name="FL042Eh" horiz-adv-x="875" 
d="M0 0h125v250h125v-250h500v625h-500v-250h-125v250h-125v-625zM625 125h-250v375h250v-375z" />
    <glyph glyph-name="FL0427h" 
d="M375 625v-250h-250v250h-125v-375h375v-250h125v625h-125z" />
    <glyph glyph-name="FL0426h" horiz-adv-x="687" 
d="M0 0h562v125h-62v500h-125v-500h-250v500h-125v-625z" />
    <glyph glyph-name="FL0424h" horiz-adv-x="750" 
d="M625 500h-250v125h-125v-125h-250v-375h250v-125h125v125h250v375zM500 250h-125v125h125v-125zM125 250v125h125v-125h-125z" />
    <glyph glyph-name="FL0430h" 
d="M0 625v-625h125v250h250v-250h125v625h-500zM375 375h-250v125h250v-125z" />
    <glyph glyph-name="FL0431h" 
d="M500 500v125h-500v-625h500v250h-130v125h-245v125h375zM370 250v-125h-245v125h245z" />
    <glyph glyph-name="FL0432h" 
d="M0 625v-625h500v250h-125v125h125v250h-500zM370 500v-125h-245v125h245zM370 250v-125h-245v125h245z" />
    <glyph glyph-name="FL0433h" horiz-adv-x="500" 
d="M375 500v125h-375v-625h125v500h250z" />
    <glyph glyph-name="FL0434h" horiz-adv-x="750" 
d="M63 500v-375h-63v-125h625v125h-62v500h-375v-125h250v-375h-250v375h-125z" />
    <glyph glyph-name="FL0435h" 
d="M500 500v125h-500v-625h500v125h-375v125h250v125h-250v125h375z" />
    <glyph glyph-name="FL0436h" horiz-adv-x="750" 
d="M250 0h125v250h125v-250h125v250h-125v125h-125v250h-125v-250h-125v250h-125v-250h125v-125h125v-250zM0 0h125v250h-125v-250zM625 625h-125v-250h125v250z" />
    <glyph glyph-name="FL0437h" 
d="M0 500h375v-125h-250v-125h250v-125h-375v-125h500v625h-500v-125z" />
    <glyph glyph-name="FL0438h" 
d="M375 625v-500h-250v500h-125v-500h125v-125h375v625h-125z" />
    <glyph glyph-name="FL0439h" 
d="M375 625v-500h-250v500h-125v-500h125v-125h375v625h-125zM125 750h250v125h-250v-125z" />
    <glyph glyph-name="FL043Ah" 
d="M0 0h125v250h250v125h-250v250h-125v-625zM500 0v250h-125v-250h125zM500 625h-125v-250h125v250z" />
    <glyph glyph-name="FL043Bh" 
d="M375 0h125v625h-375v-125h250v-500zM0 500v-500h125v500h-125z" />
    <glyph glyph-name="FL043Ch" horiz-adv-x="750" 
d="M500 625v-625h125v625h-125zM125 625h-125v-625h125v625zM375 0v375h-125v-375h125zM500 500h-125v-125h125v125zM125 375h125v125h-125v-125z" />
    <glyph glyph-name="FL043Dh" 
d="M375 625v-250h-250v250h-125v-625h125v250h250v-250h125v625h-125z" />
    <glyph glyph-name="FL043Eh" 
d="M500 625h-500v-625h500v625zM375 125h-250v375h250v-375z" />
    <glyph glyph-name="FL043Fh" 
d="M0 625v-625h125v500h250v-500h125v625h-500z" />
    <glyph glyph-name="FL0440h" 
d="M0 625v-625h125v250h375v375h-500zM375 375h-250v125h250v-125z" />
    <glyph glyph-name="FL0441h" 
d="M500 500v125h-500v-625h500v125h-375v375h375z" />
    <glyph glyph-name="FL0442h" horiz-adv-x="500" 
d="M375 625h-375v-125h125v-500h125v500h125v125z" />
    <glyph glyph-name="FL0443h" 
d="M375 625v-250h-250v250h-125v-375h375v-125h-375v-125h500v625h-125z" />
    <glyph glyph-name="FL0444h" horiz-adv-x="750" 
d="M625 500h-250v125h-125v-125h-250v-375h250v-125h125v125h250v375zM500 250h-125v125h125v-125zM125 250v125h125v-125h-125z" />
    <glyph glyph-name="FL0445h" 
d="M500 0v250h-125v125h-250v250h-125v-250h125v-125h250v-250h125zM0 250v-250h125v250h-125zM500 375v250h-125v-250h125z" />
    <glyph glyph-name="FL0446h" horiz-adv-x="687" 
d="M0 0h562v125h-62v500h-125v-500h-250v500h-125v-625z" />
    <glyph glyph-name="FL0447h" 
d="M375 625v-250h-250v250h-125v-375h375v-250h125v625h-125z" />
    <glyph glyph-name="FL0448h" horiz-adv-x="750" 
d="M625 0v625h-125v-500h-125v500h-125v-500h-125v500h-125v-625h625z" />
    <glyph glyph-name="FL0449h" horiz-adv-x="812" 
d="M687 0v125h-62v500h-125v-500h-125v500h-125v-500h-125v500h-125v-625h687z" />
    <glyph glyph-name="FL044Ah" horiz-adv-x="687" 
d="M0 500h62v-500h500v375h-375v250h-187v-125zM437 250v-125h-250v125h250z" />
    <glyph glyph-name="FL044Bh" horiz-adv-x="875" 
d="M0 0h500v375h-375v250h-125v-625zM625 0h125v625h-125v-625zM375 250v-125h-250v125h250z" />
    <glyph glyph-name="FL044Ch" 
d="M0 0h500v375h-375v250h-125v-625zM375 250v-125h-250v125h250z" />
    <glyph glyph-name="FL044Dh" 
d="M0 500h375v-125h-250v-125h250v-125h-375v-125h375v125h125v375h-125v125h-375v-125z" />
    <glyph glyph-name="FL044Eh" horiz-adv-x="875" 
d="M0 0h125v250h125v-250h500v625h-500v-250h-125v250h-125v-625zM625 125h-250v375h250v-375z" />
    <glyph glyph-name="FL044Fh" 
d="M375 250v-250h125v625h-500v-250h125v-125h250zM0 0h125v250h-125v-250zM125 375v125h250v-125h-250z" />
    <glyph glyph-name="FL0408h" horiz-adv-x="500" 
d="M250 625v-500h-250v-125h375v625h-125z" />
    <glyph glyph-name="FL0458h" horiz-adv-x="500" 
d="M250 625v-500h-250v-125h375v625h-125z" />
    <glyph glyph-name="FL0405h" 
d="M125 500h375v125h-500v-375h375v-125h-375v-125h500v375h-375v125z" />
    <glyph glyph-name="FL0455h" 
d="M125 500h375v125h-500v-375h375v-125h-375v-125h500v375h-375v125z" />
    <glyph glyph-name="FL040Eh" 
d="M375 625v-250h-250v250h-125v-375h375v-125h-375v-125h500v625h-125zM125 750h125v125h-125v-125zM375 875v125h-125v-125h125z" />
    <glyph glyph-name="FL045Eh" 
d="M375 625v-250h-250v250h-125v-375h375v-125h-375v-125h500v625h-125zM125 750h125v125h-125v-125zM375 875v125h-125v-125h125z" />
    <glyph glyph-name="FL0409h" horiz-adv-x="875" 
d="M375 0h375v375h-250v250h-375v-125h250v-500zM0 500v-500h125v500h-125zM625 250v-125h-125v125h125z" />
    <glyph glyph-name="FL0459h" horiz-adv-x="875" 
d="M375 0h375v375h-250v250h-375v-125h250v-500zM0 500v-500h125v500h-125zM625 250v-125h-125v125h125z" />
    <glyph glyph-name="FL0406h" unicode="&#x406;" horiz-adv-x="250" 
d="M0 625v-625h125v625h-125z" />
    <glyph glyph-name="FL0456h" horiz-adv-x="250" 
d="M0 625v-625h125v625h-125z" />
    <glyph glyph-name="FL0490h" horiz-adv-x="500" 
d="M375 500v250h-125v-125h-250v-625h125v500h250z" />
    <glyph glyph-name="FL0491h" horiz-adv-x="500" 
d="M375 500v250h-125v-125h-250v-625h125v500h250z" />
    <glyph glyph-name="FL0401h" 
d="M500 500v125h-500v-625h500v125h-375v125h250v125h-250v125h375zM375 875v-125h125v125h-125zM0 876v-125h125v125h-125z" />
    <glyph glyph-name="FL0451h" 
d="M500 500v125h-500v-625h500v125h-375v125h250v125h-250v125h375zM375 875v-125h125v125h-125zM0 876v-125h125v125h-125z" />
    <glyph glyph-name="FL0404h" 
d="M0 500v-375h125v-125h375v125h-375v125h250v125h-250v125h-125zM500 500v125h-375v-125h375z" />
    <glyph glyph-name="FL0454h" 
d="M0 500v-375h125v-125h375v125h-375v125h250v125h-250v125h-125zM500 500v125h-375v-125h375z" />
    <glyph glyph-name="FL0403h" horiz-adv-x="500" 
d="M375 500v125h-375v-625h125v500h250zM250 875h-125v-125h125v125zM250 875h125v125h-125v-125z" />
    <glyph glyph-name="FL0453h" horiz-adv-x="500" 
d="M375 500v125h-375v-625h125v500h250zM250 875h-125v-125h125v125zM250 875h125v125h-125v-125z" />
    <glyph glyph-name="FL040Ah" horiz-adv-x="875" 
d="M375 625v-250h-250v250h-125v-625h125v250h250v-250h375v375h-250v250h-125zM625 250v-125h-125v125h125z" />
    <glyph glyph-name="FL045Ah" horiz-adv-x="875" 
d="M375 625v-250h-250v250h-125v-625h125v250h250v-250h375v375h-250v250h-125zM625 250v-125h-125v125h125z" />
    <glyph glyph-name="FL040Ch" 
d="M500 0v250h-125v125h-250v250h-125v-625h125v250h250v-250h125zM500 625h-125v-250h125v250zM250 875h-125v-125h125v125zM250 875h125v125h-125v-125z" />
    <glyph glyph-name="FL045Ch" 
d="M500 0v250h-125v125h-250v250h-125v-625h125v250h250v-250h125zM500 625h-125v-250h125v250zM250 875h-125v-125h125v125zM250 875h125v125h-125v-125z" />
    <glyph glyph-name="FL0407h" horiz-adv-x="500" 
d="M125 625v-625h125v625h-125zM0 875v-125h125v125h-125zM250 875v125h-125v-125h125zM250 875v-125h125v125h-125z" />
    <glyph glyph-name="FL0457h" horiz-adv-x="500" 
d="M125 625v-625h125v625h-125zM0 875v-125h125v125h-125zM250 875v125h-125v-125h125zM250 875v-125h125v125h-125z" />
    <glyph glyph-name="FL040Bh" 
d="M375 0h125v375h-250v125h125v125h-375v-125h125v-500h125v250h125v-250z" />
    <glyph glyph-name="FL045Bh" 
d="M375 0h125v375h-250v125h125v125h-375v-125h125v-500h125v250h125v-250z" />
    <glyph glyph-name="FL0402h" 
d="M375 0h125v250h-125v125h-125v125h125v125h-375v-125h125v-500h125v250h125v-250z" />
    <glyph glyph-name="FL0452h" 
d="M375 0h125v250h-125v125h-125v125h125v125h-375v-125h125v-500h125v250h125v-250z" />
    <glyph glyph-name="FL040Fh" 
d="M375 125h-250v500h-125v-625h250v-125h125v125h125v625h-125v-500z" />
    <glyph glyph-name="FL045Fh" 
d="M375 125h-250v500h-125v-625h250v-125h125v125h125v625h-125v-500z" />
    <glyph glyph-name="FL546" 
d="M0 625v-625h500v250h-125v125h125v250h-500zM370 500v-125h-245v125h245zM370 250v-125h-245v125h245z" />
    <glyph glyph-name="FL547" horiz-adv-x="750" 
d="M250 0h125v250h125v-250h125v250h-125v125h-125v250h-125v-250h-125v250h-125v-250h125v-125h125v-250zM0 0h125v250h-125v-250zM625 625h-125v-250h125v250z" />
    <glyph glyph-name="FL548" 
d="M0 0h125v250h250v125h-250v250h-125v-625zM500 0v250h-125v-250h125zM500 625h-125v-250h125v250z" />
    <glyph glyph-name="FL549" 
d="M375 0h125v625h-375v-125h250v-500zM0 500v-500h125v500h-125z" />
    <glyph glyph-name="FL550" horiz-adv-x="750" 
d="M500 625v-625h125v625h-125zM125 625h-125v-625h125v625zM375 0v375h-125v-375h125zM500 500h-125v-125h125v125zM125 375h125v125h-125v-125z" />
    <glyph glyph-name="FL551" 
d="M375 625v-250h-250v250h-125v-625h125v250h250v-250h125v625h-125z" />
    <glyph glyph-name="FL552" 
d="M500 625h-500v-625h500v625zM375 125h-250v375h250v-375z" />
    <glyph glyph-name="FL553" 
d="M0 625v-625h125v500h250v-500h125v625h-500z" />
    <glyph glyph-name="FL554" horiz-adv-x="500" 
d="M375 625h-375v-125h125v-500h125v500h125v125z" />
    <glyph glyph-name="FL555" 
d="M375 625v-250h-250v250h-125v-375h375v-125h-375v-125h500v625h-125z" />
    <glyph glyph-name="FL556" horiz-adv-x="750" 
d="M625 500h-250v125h-125v-125h-250v-375h250v-125h125v125h250v375zM500 250h-125v125h125v-125zM125 250v125h125v-125h-125z" />
    <glyph glyph-name="FL557" 
d="M500 0v250h-125v125h-250v250h-125v-250h125v-125h250v-250h125zM0 250v-250h125v250h-125zM500 375v250h-125v-250h125z" />
    <glyph glyph-name="FL558" horiz-adv-x="812" 
d="M687 0v125h-62v500h-125v-500h-125v500h-125v-500h-125v500h-125v-625h687z" />
    <glyph glyph-name="FL559" horiz-adv-x="687" 
d="M0 500h62v-500h500v375h-375v250h-187v-125zM437 250v-125h-250v125h250z" />
    <glyph glyph-name="FL560" horiz-adv-x="875" 
d="M0 0h500v375h-375v250h-125v-625zM625 0h125v625h-125v-625zM375 250v-125h-250v125h250z" />
    <glyph glyph-name="FL561" horiz-adv-x="750" 
d="M250 0h125v250h125v-250h125v250h-125v125h-125v250h-125v-250h-125v250h-125v-250h125v-125h125v-250zM0 0h125v250h-125v-250zM625 625h-125v-250h125v250z" />
    <glyph glyph-name="FL562" 
d="M375 625v-250h-250v250h-125v-375h375v-250h125v625h-125z" />
    <glyph glyph-name="FL563" horiz-adv-x="750" 
d="M625 0v625h-125v-500h-125v500h-125v-500h-125v500h-125v-625h625z" />
    <glyph glyph-name="FL564" 
d="M375 250v-250h125v625h-500v-250h125v-125h250zM0 0h125v250h-125v-250zM125 375v125h250v-125h-250z" />
    <glyph glyph-name="afii10017" unicode="&#x410;" 
d="M0 625v-625h125v250h250v-250h125v625h-500zM375 375h-250v125h250v-125z" />
    <glyph glyph-name="afii10019" unicode="&#x412;" 
d="M0 625v-625h500v250h-125v125h125v250h-500zM370 500v-125h-245v125h245zM370 250v-125h-245v125h245z" />
    <glyph glyph-name="afii10020" unicode="&#x413;" horiz-adv-x="500" 
d="M375 500v125h-375v-625h125v500h250z" />
    <glyph glyph-name="afii10022" unicode="&#x415;" 
d="M500 500v125h-500v-625h500v125h-375v125h250v125h-250v125h375z" />
    <glyph glyph-name="afii10024" unicode="&#x416;" horiz-adv-x="750" 
d="M250 0h125v250h125v-250h125v250h-125v125h-125v250h-125v-250h-125v250h-125v-250h125v-125h125v-250zM0 0h125v250h-125v-250zM625 625h-125v-250h125v250z" />
    <glyph glyph-name="afii10025" unicode="&#x417;" 
d="M0 500h375v-125h-250v-125h250v-125h-375v-125h500v625h-500v-125z" />
    <glyph glyph-name="afii10026" unicode="&#x418;" 
d="M375 625v-500h-250v500h-125v-500h125v-125h375v625h-125z" />
    <glyph glyph-name="afii10027" unicode="&#x419;" 
d="M375 625v-500h-250v500h-125v-500h125v-125h375v625h-125zM125 750h250v125h-250v-125z" />
    <glyph glyph-name="afii10028" unicode="&#x41a;" 
d="M0 0h125v250h250v125h-250v250h-125v-625zM500 0v250h-125v-250h125zM500 625h-125v-250h125v250z" />
    <glyph glyph-name="afii10029" unicode="&#x41b;" 
d="M375 0h125v625h-375v-125h250v-500zM0 500v-500h125v500h-125z" />
    <glyph glyph-name="afii10030" unicode="&#x41c;" horiz-adv-x="750" 
d="M500 625v-625h125v625h-125zM125 625h-125v-625h125v625zM375 0v375h-125v-375h125zM500 500h-125v-125h125v125zM125 375h125v125h-125v-125z" />
    <glyph glyph-name="afii10031" unicode="&#x41d;" 
d="M375 625v-250h-250v250h-125v-625h125v250h250v-250h125v625h-125z" />
    <glyph glyph-name="afii10032" unicode="&#x41e;" 
d="M500 625h-500v-625h500v625zM375 125h-250v375h250v-375z" />
    <glyph glyph-name="afii10033" unicode="&#x41f;" 
d="M0 625v-625h125v500h250v-500h125v625h-500z" />
    <glyph glyph-name="afii10034" unicode="&#x420;" 
d="M0 625v-625h125v250h375v375h-500zM375 375h-250v125h250v-125z" />
    <glyph glyph-name="afii10035" unicode="&#x421;" 
d="M500 500v125h-500v-625h500v125h-375v375h375z" />
    <glyph glyph-name="afii10036" unicode="&#x422;" horiz-adv-x="500" 
d="M375 625h-375v-125h125v-500h125v500h125v125z" />
    <glyph glyph-name="afii10037" unicode="&#x423;" 
d="M375 625v-250h-250v250h-125v-375h375v-125h-375v-125h500v625h-125z" />
    <glyph glyph-name="afii10038" unicode="&#x424;" horiz-adv-x="750" 
d="M625 500h-250v125h-125v-125h-250v-375h250v-125h125v125h250v375zM500 250h-125v125h125v-125zM125 250v125h125v-125h-125z" />
    <glyph glyph-name="afii10039" unicode="&#x425;" 
d="M500 0v250h-125v125h-250v250h-125v-250h125v-125h250v-250h125zM0 250v-250h125v250h-125zM500 375v250h-125v-250h125z" />
    <glyph glyph-name="afii10040" unicode="&#x426;" horiz-adv-x="687" 
d="M0 0h562v125h-62v500h-125v-500h-250v500h-125v-625z" />
    <glyph glyph-name="afii10041" unicode="&#x427;" 
d="M375 625v-250h-250v250h-125v-375h375v-250h125v625h-125z" />
    <glyph glyph-name="afii10042" unicode="&#x428;" horiz-adv-x="750" 
d="M625 0v625h-125v-500h-125v500h-125v-500h-125v500h-125v-625h625z" />
    <glyph glyph-name="afii10043" unicode="&#x429;" horiz-adv-x="812" 
d="M687 0v125h-62v500h-125v-500h-125v500h-125v-500h-125v500h-125v-625h687z" />
    <glyph glyph-name="afii10044" unicode="&#x42a;" horiz-adv-x="687" 
d="M0 500h62v-500h500v375h-375v250h-187v-125zM437 250v-125h-250v125h250z" />
    <glyph glyph-name="afii10045" unicode="&#x42b;" horiz-adv-x="875" 
d="M0 0h500v375h-375v250h-125v-625zM625 0h125v625h-125v-625zM375 250v-125h-250v125h250z" />
    <glyph glyph-name="afii10046" unicode="&#x42c;" 
d="M0 0h500v375h-375v250h-125v-625zM375 250v-125h-250v125h250z" />
    <glyph glyph-name="afii10047" unicode="&#x42d;" 
d="M0 500h375v-125h-250v-125h250v-125h-375v-125h375v125h125v375h-125v125h-375v-125z" />
    <glyph glyph-name="afii10048" unicode="&#x42e;" horiz-adv-x="875" 
d="M0 0h125v250h125v-250h500v625h-500v-250h-125v250h-125v-625zM625 125h-250v375h250v-375z" />
    <glyph glyph-name="afii10065" unicode="&#x430;" 
d="M0 625v-625h125v250h250v-250h125v625h-500zM375 375h-250v125h250v-125z" />
    <glyph glyph-name="afii10066" unicode="&#x431;" 
d="M500 500v125h-500v-625h500v250h-125v125h-250v125h375zM370 250v-125h-245v125h245z" />
    <glyph glyph-name="afii10067" unicode="&#x432;" 
d="M0 625v-625h500v250h-125v125h125v250h-500zM370 500v-125h-245v125h245zM370 250v-125h-245v125h245z" />
    <glyph glyph-name="afii10068" unicode="&#x433;" horiz-adv-x="500" 
d="M375 500v125h-375v-625h125v500h250z" />
    <glyph glyph-name="afii10069" unicode="&#x434;" horiz-adv-x="750" 
d="M63 500v-375h-63v-125h625v125h-62v500h-375v-125h-125zM438 500v-375h-245v375h245z" />
    <glyph glyph-name="afii10070" unicode="&#x435;" 
d="M500 500v125h-500v-625h500v125h-375v125h250v125h-250v125h375z" />
    <glyph glyph-name="afii10072" unicode="&#x436;" horiz-adv-x="750" 
d="M250 0h125v250h125v-250h125v250h-125v125h-125v250h-125v-250h-125v250h-125v-250h125v-125h125v-250zM0 0h125v250h-125v-250zM625 625h-125v-250h125v250z" />
    <glyph glyph-name="afii10073" unicode="&#x437;" 
d="M0 500h375v-125h-250v-125h250v-125h-375v-125h500v625h-500v-125z" />
    <glyph glyph-name="afii10074" unicode="&#x438;" 
d="M375 625v-500h-250v500h-125v-500h125v-125h375v625h-125z" />
    <glyph glyph-name="afii10075" unicode="&#x439;" 
d="M375 625v-500h-250v500h-125v-500h125v-125h375v625h-125zM125 750h250v125h-250v-125z" />
    <glyph glyph-name="afii10076" unicode="&#x43a;" 
d="M0 0h125v250h250v125h-250v250h-125v-625zM500 0v250h-125v-250h125zM500 625h-125v-250h125v250z" />
    <glyph glyph-name="afii10077" unicode="&#x43b;" 
d="M375 0h125v625h-375v-125h250v-500zM0 500v-500h125v500h-125z" />
    <glyph glyph-name="afii10078" unicode="&#x43c;" horiz-adv-x="750" 
d="M500 625v-625h125v625h-125zM125 625h-125v-625h125v625zM375 0v375h-125v-375h125zM500 500h-125v-125h125v125zM125 375h125v125h-125v-125z" />
    <glyph glyph-name="afii10079" unicode="&#x43d;" 
d="M375 625v-250h-250v250h-125v-625h125v250h250v-250h125v625h-125z" />
    <glyph glyph-name="afii10080" unicode="&#x43e;" 
d="M500 625h-500v-625h500v625zM375 125h-250v375h250v-375z" />
    <glyph glyph-name="afii10081" unicode="&#x43f;" 
d="M0 625v-625h125v500h250v-500h125v625h-500z" />
    <glyph glyph-name="afii10082" unicode="&#x440;" 
d="M0 625v-625h125v250h375v375h-500zM375 375h-250v125h250v-125z" />
    <glyph glyph-name="afii10083" unicode="&#x441;" 
d="M500 500v125h-500v-625h500v125h-375v375h375z" />
    <glyph glyph-name="afii10084" unicode="&#x442;" horiz-adv-x="500" 
d="M375 625h-375v-125h125v-500h125v500h125v125z" />
    <glyph glyph-name="afii10085" unicode="&#x443;" 
d="M375 625v-250h-250v250h-125v-375h375v-125h-375v-125h500v625h-125z" />
    <glyph glyph-name="afii10086" unicode="&#x444;" horiz-adv-x="750" 
d="M625 500h-250v125h-125v-125h-250v-375h250v-125h125v125h250v375zM500 250h-125v125h125v-125zM125 250v125h125v-125h-125z" />
    <glyph glyph-name="afii10087" unicode="&#x445;" 
d="M500 0v250h-125v125h-250v250h-125v-250h125v-125h250v-250h125zM0 250v-250h125v250h-125zM500 375v250h-125v-250h125z" />
    <glyph glyph-name="afii10088" unicode="&#x446;" horiz-adv-x="687" 
d="M0 0h562v125h-62v500h-125v-500h-250v500h-125v-625z" />
    <glyph glyph-name="afii10089" unicode="&#x447;" 
d="M375 625v-250h-250v250h-125v-375h375v-250h125v625h-125z" />
    <glyph glyph-name="afii10090" unicode="&#x448;" horiz-adv-x="750" 
d="M625 0v625h-125v-500h-125v500h-125v-500h-125v500h-125v-625h625z" />
    <glyph glyph-name="afii10091" unicode="&#x449;" horiz-adv-x="812" 
d="M687 0v125h-62v500h-125v-500h-125v500h-125v-500h-125v500h-125v-625h687z" />
    <glyph glyph-name="afii10092" unicode="&#x44a;" horiz-adv-x="687" 
d="M0 500h62v-500h500v375h-375v250h-187v-125zM437 250v-125h-250v125h250z" />
    <glyph glyph-name="afii10093" unicode="&#x44b;" horiz-adv-x="875" 
d="M0 0h500v375h-375v250h-125v-625zM625 0h125v625h-125v-625zM375 250v-125h-250v125h250z" />
    <glyph glyph-name="afii10094" unicode="&#x44c;" 
d="M0 0h500v375h-375v250h-125v-625zM375 250v-125h-250v125h250z" />
    <glyph glyph-name="afii10095" unicode="&#x44d;" 
d="M0 500h375v-125h-250v-125h250v-125h-375v-125h375v125h125v375h-125v125h-375v-125z" />
    <glyph glyph-name="afii10096" unicode="&#x44e;" horiz-adv-x="875" 
d="M0 0h125v250h125v-250h500v625h-500v-250h-125v250h-125v-625zM625 125h-250v375h250v-375z" />
    <glyph glyph-name="afii10097" unicode="&#x44f;" 
d="M0 0h130v250h245v-250h125v625h-500v-250h125v-125h-125v-250zM130 500h245v-125h-245v125z" />
    <glyph glyph-name="afii10051" unicode="&#x402;" 
d="M375 0h125v250h-125v125h-125v125h125v125h-375v-125h125v-500h125v250h125v-250z" />
    <glyph glyph-name="afii10099" unicode="&#x452;" 
d="M375 0h125v250h-125v125h-125v125h125v125h-375v-125h125v-500h125v250h125v-250z" />
    <glyph glyph-name="afii10052" unicode="&#x403;" horiz-adv-x="500" 
d="M375 500v125h-375v-625h125v500h250zM250 875h-125v-125h125v125zM250 875h125v125h-125v-125z" />
    <glyph glyph-name="afii10100" unicode="&#x453;" horiz-adv-x="500" 
d="M375 500v125h-375v-625h125v500h250zM250 875h-125v-125h125v125zM250 875h125v125h-125v-125z" />
    <glyph glyph-name="afii10057" unicode="&#x408;" horiz-adv-x="500" 
d="M250 625v-500h-250v-125h375v625h-125z" />
    <glyph glyph-name="afii10105" unicode="&#x458;" horiz-adv-x="500" 
d="M250 625v-500h-250v-125h375v625h-125z" />
    <glyph glyph-name="afii10050" unicode="&#x490;" horiz-adv-x="500" 
d="M375 500v250h-125v-125h-250v-625h125v500h250z" />
    <glyph glyph-name="afii10098" unicode="&#x491;" horiz-adv-x="500" 
d="M375 500v250h-125v-125h-250v-625h125v500h250z" />
    <glyph glyph-name="afii10053" unicode="&#x404;" 
d="M0 500v-375h125v-125h375v125h-375v125h250v125h-250v125h-125zM500 500v125h-375v-125h375z" />
    <glyph glyph-name="afii10101" unicode="&#x454;" 
d="M0 500v-375h125v-125h375v125h-375v125h250v125h-250v125h-125zM500 500v125h-375v-125h375z" />
    <glyph glyph-name="afii10103" unicode="&#x456;" horiz-adv-x="250" 
d="M0 625v-625h125v625h-125z" />
    <glyph glyph-name="afii10056" unicode="&#x407;" horiz-adv-x="500" 
d="M125 625v-625h125v625h-125zM0 875v-125h125v125h-125zM250 875v125h-125v-125h125zM250 875v-125h125v125h-125z" />
    <glyph glyph-name="afii10104" unicode="&#x457;" horiz-adv-x="500" 
d="M125 625v-625h125v625h-125zM0 875v-125h125v125h-125zM250 875v125h-125v-125h125zM250 875v-125h125v125h-125z" />
    <glyph glyph-name="afii10058" unicode="&#x409;" horiz-adv-x="875" 
d="M375 0h375v375h-250v250h-375v-125h250v-500zM0 500v-500h125v500h-125zM625 250v-125h-125v125h125z" />
    <glyph glyph-name="afii10106" unicode="&#x459;" horiz-adv-x="875" 
d="M375 0h375v375h-250v250h-375v-125h250v-500zM0 500v-500h125v500h-125zM625 250v-125h-125v125h125z" />
    <glyph glyph-name="afii10062" unicode="&#x40e;" 
d="M375 625v-250h-250v250h-125v-375h375v-125h-375v-125h500v625h-125zM125 750h125v125h-125v-125zM375 875v125h-125v-125h125z" />
    <glyph glyph-name="afii10110" unicode="&#x45e;" 
d="M375 625v-250h-250v250h-125v-375h375v-125h-375v-125h500v625h-125zM125 750h125v125h-125v-125zM375 875v125h-125v-125h125z" />
    <glyph glyph-name="afii10059" unicode="&#x40a;" horiz-adv-x="875" 
d="M375 625v-250h-250v250h-125v-625h125v250h250v-250h375v375h-250v250h-125zM625 250v-125h-125v125h125z" />
    <glyph glyph-name="afii10107" unicode="&#x45a;" horiz-adv-x="875" 
d="M375 625v-250h-250v250h-125v-625h125v250h250v-250h375v375h-250v250h-125zM625 250v-125h-125v125h125z" />
    <glyph glyph-name="afii10054" unicode="&#x405;" 
d="M125 500h375v125h-500v-375h375v-125h-375v-125h500v375h-375v125z" />
    <glyph glyph-name="afii10102" unicode="&#x455;" 
d="M125 500h375v125h-500v-375h375v-125h-375v-125h500v375h-375v125z" />
    <glyph glyph-name="afii10060" unicode="&#x40b;" 
d="M375 0h125v375h-250v125h125v125h-375v-125h125v-500h125v250h125v-250z" />
    <glyph glyph-name="afii10108" unicode="&#x45b;" 
d="M375 0h125v375h-250v125h125v125h-375v-125h125v-500h125v250h125v-250z" />
    <glyph glyph-name="afii10061" unicode="&#x40c;" 
d="M500 0v250h-125v125h-250v250h-125v-625h125v250h250v-250h125zM500 625h-125v-250h125v250zM250 875h-125v-125h125v125zM250 875h125v125h-125v-125z" />
    <glyph glyph-name="afii10109" unicode="&#x45c;" 
d="M500 0v250h-125v125h-250v250h-125v-625h125v250h250v-250h125zM500 625h-125v-250h125v250zM250 875h-125v-125h125v125zM250 875h125v125h-125v-125z" />
    <glyph glyph-name="afii10023" unicode="&#x401;" 
d="M500 500v125h-500v-625h500v125h-375v125h250v125h-250v125h375zM375 875v-125h125v125h-125zM0 876v-125h125v125h-125z" />
    <glyph glyph-name="afii10071" unicode="&#x451;" 
d="M500 500v125h-500v-625h500v125h-375v125h250v125h-250v125h375zM375 875v-125h125v125h-125zM0 876v-125h125v125h-125z" />
    <glyph glyph-name="afii10145" unicode="&#x40f;" 
d="M375 125h-250v500h-125v-625h250v-125h125v125h125v625h-125v-500z" />
    <glyph glyph-name="afii10193" unicode="&#x45f;" 
d="M375 125h-250v500h-125v-625h250v-125h125v125h125v625h-125v-500z" />
    <glyph glyph-name="FL0141" 
d="M500 0v250h-125v125h-250v250h-125v-625h125v250h250v-250h125zM500 625h-125v-250h125v250zM250 875h-125v-125h125v125zM250 875h125v125h-125v-125z" />
    <glyph glyph-name="FL0157" 
d="M500 0v250h-125v125h-250v250h-125v-625h125v250h250v-250h125zM500 625h-125v-250h125v250zM250 875h-125v-125h125v125zM250 875h125v125h-125v-125z" />
    <glyph glyph-name="FL0142" 
d="M375 0h125v375h-250v125h125v125h-375v-125h125v-500h125v250h125v-250z" />
    <glyph glyph-name="FL0158" 
d="M375 0h125v375h-250v125h125v125h-375v-125h125v-500h125v250h125v-250z" />
    <glyph glyph-name="FL0129" horiz-adv-x="500" 
d="M375 500v125h-375v-625h125v500h250zM250 875h-125v-125h125v125zM250 875h125v125h-125v-125z" />
    <glyph glyph-name="FL0128" 
d="M375 0h125v250h-125v125h-125v125h125v125h-375v-125h125v-500h125v250h125v-250z" />
    <glyph glyph-name="FL0144" 
d="M375 0h125v250h-125v125h-125v125h125v125h-375v-125h125v-500h125v250h125v-250z" />
    <glyph glyph-name="FL0143" 
d="M375 125h-250v500h-125v-625h250v-125h125v125h125v625h-125v-500z" />
    <glyph glyph-name="FL09F0h" 
d="M0 0h130v250h245v-250h125v625h-500v-250h125v-125h-125v-250zM130 500h245v-125h-245v125z" />
    <glyph glyph-name="FL09F3h" horiz-adv-x="750" 
d="M63 500v-375h-63v-125h625v125h-62v500h-375v-125h-125zM438 500v-375h-245v375h245z" />
    <glyph glyph-name="FL09F7h" 
d="M500 500v125h-500v-625h500v250h-125v125h-250v125h375zM370 250v-125h-245v125h245z" />
    <glyph glyph-name="FL00D0h" 
d="M0 625v-625h125v250h375v375h-500zM375 375h-250v125h250v-125z" />
    <glyph glyph-name="FL00D7h" 
d="M375 625v-250h-250v250h-125v-375h375v-250h125v625h-125z" />
    <glyph glyph-name="FL00DDh" 
d="M0 500h375v-125h-250v-125h250v-125h-375v-125h375v125h125v375h-125v125h-375v-125z" />
    <glyph glyph-name="FL00DEh" horiz-adv-x="875" 
d="M0 0h125v250h125v-250h500v625h-500v-250h-125v250h-125v-625zM625 125h-250v375h250v-375z" />
    <glyph glyph-name="FL00F0h" 
d="M0 625v-625h125v250h375v375h-500zM375 375h-250v125h250v-125z" />
    <glyph glyph-name="FL00FDh" 
d="M0 500h375v-125h-250v-125h250v-125h-375v-125h375v125h125v375h-125v125h-375v-125z" />
    <glyph glyph-name="FL00FEh" horiz-adv-x="875" 
d="M0 0h125v250h125v-250h500v625h-500v-250h-125v250h-125v-625zM625 125h-250v375h250v-375z" />
    <glyph glyph-name="Eth" unicode="&#xd0;" 
d="M0 625v-625h125v250h375v375h-500zM375 375h-250v125h250v-125z" />
    <glyph glyph-name="multiply" unicode="&#xd7;" 
d="M375 625v-250h-250v250h-125v-375h375v-250h125v625h-125z" />
    <glyph glyph-name="Yacute" unicode="&#xdd;" 
d="M0 500h375v-125h-250v-125h250v-125h-375v-125h375v125h125v375h-125v125h-375v-125z" />
    <glyph glyph-name="Thorn" unicode="&#xde;" horiz-adv-x="875" 
d="M0 0h125v250h125v-250h500v625h-500v-250h-125v250h-125v-625zM625 125h-250v375h250v-375z" />
    <glyph glyph-name="eth" unicode="&#xf0;" 
d="M0 625v-625h125v250h375v375h-500zM375 375h-250v125h250v-125z" />
    <glyph glyph-name="yacute" unicode="&#xfd;" 
d="M0 500h375v-125h-250v-125h250v-125h-375v-125h375v125h125v375h-125v125h-375v-125z" />
    <glyph glyph-name="thorn" unicode="&#xfe;" horiz-adv-x="875" 
d="M0 0h125v250h125v-250h500v625h-500v-250h-125v250h-125v-625zM625 125h-250v375h250v-375z" />
    <glyph glyph-name="afii10018" unicode="&#x411;" 
d="M500 500v125h-500v-625h500v250h-125v125h-250v125h375zM370 250v-125h-245v125h245z" />
    <glyph glyph-name="afii10021" unicode="&#x414;" horiz-adv-x="750" 
d="M63 500v-375h-63v-125h625v125h-62v500h-375v-125h-125zM438 500v-375h-245v375h245z" />
    <glyph glyph-name="afii10049" unicode="&#x42f;" 
d="M0 0h130v250h245v-250h125v625h-500v-250h125v-125h-125v-250zM130 500h245v-125h-245v125z" />
  </font>
</defs>
</svg>
